{"glyphs":{"0":{"ha":625,"x_min":0,"x_max":625,"o":"m 309 324 l 309 324 q 342 321 317 313 q 397 352 368 330 q 442 405 426 374 q 445 470 458 435 q 399 488 432 495 q 333 461 366 481 q 285 431 300 442 q 165 307 222 383 q 73 148 109 230 q 37 0 37 65 q 86 -89 37 -65 q 252 -74 136 -113 q 393 -7 313 -52 q 533 98 473 37 q 595 226 593 158 q 503 363 597 294 q 492 377 492 371 q 499 385 492 383 q 514 382 505 387 q 621 235 617 310 q 566 92 625 160 q 422 -27 507 24 q 262 -106 337 -79 q 76 -124 136 -150 q 7 -27 15 -98 q 33 135 0 44 q 127 313 66 227 q 264 458 188 400 q 320 493 287 475 q 389 516 354 511 q 450 500 424 522 q 480 409 498 457 q 411 324 463 361 q 304 278 359 287 q 259 289 269 273 q 286 331 247 308 q 299 332 292 334 q 309 324 306 330 z "},"1":{"ha":439,"x_min":0,"x_max":439,"o":"m 417 527 l 417 527 q 432 525 426 528 q 438 514 437 523 q 390 413 439 487 q 264 237 340 339 q 139 65 203 155 q 21 -113 75 -25 q 10 -122 16 -122 q 2 -116 4 -121 q 5 -101 0 -110 q 105 56 41 -39 q 231 241 169 151 q 303 347 273 302 q 342 408 333 392 q 330 399 351 424 q 252 316 290 355 q 216 279 233 297 q 207 268 210 271 q 204 262 204 264 q 208 258 205 260 q 214 248 210 255 q 217 234 217 240 q 210 225 216 228 q 179 218 189 217 q 165 223 169 218 q 159 235 161 229 q 159 236 159 235 q 191 291 156 247 q 276 390 227 336 q 367 484 326 444 q 417 527 408 524 z "},"2":{"ha":738,"x_min":0,"x_max":738,"o":"m 301 19 l 301 19 q 292 13 296 16 q 281 3 281 6 q 292 -1 281 1 q 321 -8 302 -3 q 384 -33 350 -18 q 478 -67 431 -55 q 562 -58 525 -79 q 575 -55 569 -53 q 583 -63 582 -57 q 574 -75 584 -68 q 470 -93 526 -103 q 359 -59 415 -82 q 277 -31 317 -42 q 264 -28 269 -30 q 247 -25 253 -26 q 234 -27 241 -24 q 215 -37 227 -30 q 150 -73 195 -50 q 62 -103 105 -96 q 7 -75 20 -110 q 40 -14 0 -34 q 131 11 80 6 q 208 14 181 16 q 217 14 213 14 q 236 13 229 12 q 249 17 242 13 q 269 29 256 20 q 340 82 286 41 q 462 180 394 123 q 589 296 530 237 q 678 405 649 356 q 684 477 707 453 q 612 485 659 497 q 519 449 565 473 q 452 409 473 425 q 440 399 444 403 q 437 394 437 396 q 439 390 437 392 q 443 384 441 388 q 445 373 444 380 q 440 360 445 366 q 429 355 436 355 q 422 355 429 355 q 408 356 416 355 q 392 360 399 357 q 382 370 385 363 q 384 388 379 377 q 406 415 389 399 q 491 470 435 439 q 604 514 546 500 q 698 496 661 527 q 701 389 738 456 q 587 250 664 323 q 429 114 509 176 q 301 19 349 52 m 171 -33 l 171 -33 q 189 -19 191 -21 q 165 -18 186 -17 q 158 -18 161 -18 q 106 -22 132 -20 q 64 -31 81 -24 q 46 -43 56 -35 q 37 -60 37 -51 q 56 -75 37 -69 q 100 -66 69 -77 q 171 -33 132 -55 z "},"3":{"ha":590,"x_min":0,"x_max":590,"o":"m 559 152 l 559 152 q 504 44 565 90 q 349 -28 442 -1 q 163 -61 255 -55 q 15 -48 71 -66 q 2 -40 3 -44 q 4 -33 0 -35 q 15 -31 8 -30 q 151 -38 65 -46 q 324 -5 236 -31 q 471 60 412 21 q 525 147 529 100 q 473 199 518 179 q 375 231 428 220 q 295 243 323 241 q 246 243 264 245 q 200 236 227 241 q 195 235 197 235 q 123 226 138 225 q 97 240 96 227 q 117 263 98 253 q 197 279 155 275 q 285 294 239 281 q 488 389 409 334 q 552 452 551 429 q 514 480 553 475 q 420 473 475 486 q 316 431 365 461 q 302 420 306 425 q 300 407 298 416 q 293 389 303 393 q 271 389 283 385 q 251 402 258 393 q 252 422 243 411 q 471 510 384 503 q 574 475 558 517 q 507 367 590 433 q 375 292 454 327 q 350 282 359 286 q 336 275 335 277 q 356 270 337 273 q 369 268 361 269 q 443 248 400 262 q 519 211 485 235 q 559 152 553 187 z "},"4":{"ha":555,"x_min":0,"x_max":555,"o":"m 183 -106 l 183 -106 q 196 -110 192 -105 q 198 -120 201 -115 q 185 -125 196 -125 q 161 -71 139 -125 q 243 65 183 -17 q 371 231 304 146 q 464 350 424 297 q 513 429 503 404 q 496 443 518 450 q 436 411 474 435 q 357 357 397 387 q 286 303 316 327 q 247 273 255 279 q 245 271 245 271 q 118 177 176 216 q 33 135 61 138 q 3 172 0 135 q 30 262 7 209 q 80 363 54 315 q 121 434 107 411 q 126 444 125 441 q 138 468 135 459 q 141 483 141 477 q 140 490 141 488 q 140 494 140 492 q 140 498 140 496 q 143 502 140 498 q 150 510 145 505 q 162 518 155 515 q 177 522 168 522 q 194 508 195 522 q 182 475 193 493 q 163 444 172 456 q 157 434 159 437 q 121 366 138 398 q 39 207 61 259 q 57 173 17 154 q 224 298 97 191 q 341 386 283 344 q 446 452 399 427 q 519 469 493 476 q 539 412 555 456 q 484 326 530 387 q 378 189 438 265 q 274 52 323 118 q 197 -57 224 -14 q 183 -106 170 -101 z "},"5":{"ha":572,"x_min":0,"x_max":572,"o":"m 18 58 l 18 58 q 27 67 22 67 q 34 62 32 68 q 33 50 36 56 q 43 -16 20 16 q 104 -69 66 -48 q 174 -93 142 -90 q 213 -75 211 -95 q 196 -24 214 -56 q 152 43 177 8 q 104 120 119 88 q 103 201 92 155 q 139 293 115 247 q 186 375 163 338 q 193 386 191 382 q 196 392 195 390 q 197 396 197 395 q 197 398 197 397 q 198 401 197 399 q 199 408 198 404 q 228 441 216 441 q 242 420 241 441 q 227 374 244 400 q 224 371 226 373 q 177 291 203 338 q 134 199 150 245 q 129 124 118 154 q 163 76 136 109 q 223 -10 194 36 q 245 -88 252 -56 q 168 -115 239 -119 q 83 -88 125 -112 q 21 -26 42 -64 q 18 58 0 12 m 563 474 l 563 474 q 377 451 488 452 q 183 462 265 450 q 172 461 176 463 q 165 456 168 459 q 159 454 163 454 q 149 457 156 453 q 137 466 144 458 q 129 483 131 474 q 137 497 127 492 q 174 497 146 502 q 367 479 249 485 q 557 493 484 473 q 568 493 563 496 q 572 484 572 490 q 563 474 572 479 z "},"6":{"ha":614,"x_min":0,"x_max":614,"o":"m 526 408 l 526 408 q 578 443 572 429 q 521 451 584 456 q 352 390 438 442 q 194 264 267 338 q 77 114 121 190 q 35 -19 33 38 q 98 -94 36 -77 q 180 -92 132 -101 q 271 -68 228 -83 q 283 -64 278 -66 q 301 -57 296 -60 q 309 -51 307 -55 q 312 -39 311 -47 q 317 -15 313 -31 q 397 127 341 65 q 484 180 445 177 q 540 153 524 183 q 535 76 557 123 q 438 -24 513 28 q 383 -57 412 -41 q 369 -64 376 -60 q 345 -78 353 -69 q 350 -104 337 -86 q 358 -123 359 -116 q 351 -133 357 -131 q 338 -130 345 -135 q 326 -113 330 -122 q 323 -108 325 -111 q 323 -106 323 -106 q 316 -93 318 -96 q 310 -90 313 -89 q 299 -94 306 -90 q 275 -102 291 -97 q 185 -123 232 -117 q 97 -119 138 -129 q 9 -35 19 -98 q 42 110 0 28 q 158 272 83 193 q 324 408 233 352 q 503 474 414 464 q 588 468 559 479 q 610 447 605 460 q 602 416 614 433 q 520 368 588 396 q 494 368 503 366 q 480 376 484 370 q 477 387 477 381 q 478 398 477 393 q 480 404 479 403 q 480 404 480 404 q 490 411 486 411 q 497 408 493 411 q 507 404 500 405 q 526 408 514 402 m 348 -14 l 348 -14 q 342 -39 339 -37 q 360 -31 345 -41 q 373 -24 366 -28 q 405 -4 385 -17 q 435 16 425 9 q 522 111 511 69 q 502 159 532 152 q 425 119 472 167 q 381 56 403 94 q 348 -14 359 18 z "},"7":{"ha":446,"x_min":0,"x_max":446,"o":"m 333 305 l 333 305 q 325 304 329 304 q 307 301 313 302 q 297 296 301 300 q 287 283 293 292 q 280 274 283 279 q 153 100 214 187 q 61 -42 92 14 q 56 -92 31 -98 q 77 -92 71 -88 q 81 -102 83 -96 q 72 -111 79 -109 q 20 -68 3 -127 q 101 86 37 -9 q 237 273 164 180 q 244 282 241 278 q 249 290 250 289 q 235 287 248 290 q 233 287 234 287 q 189 277 210 282 q 137 267 159 271 q 123 262 130 265 q 110 260 115 261 q 100 258 104 258 q 97 259 100 258 q 89 261 94 260 q 81 264 85 262 q 75 269 77 267 q 77 275 74 272 q 89 282 80 279 q 115 291 98 286 q 173 302 139 295 q 235 314 202 308 q 250 317 243 315 q 268 320 262 319 q 278 327 274 322 q 290 340 283 331 q 300 353 294 346 q 366 433 343 406 q 380 450 378 447 q 386 457 383 454 q 402 485 406 480 q 353 490 397 490 q 218 480 292 490 q 93 463 144 471 q 73 460 81 461 q 59 456 63 458 q 53 449 54 453 q 52 443 52 446 q 50 437 52 439 q 44 435 49 435 q 30 438 40 435 q 24 440 29 438 q 13 447 19 443 q 4 456 7 451 q 2 468 0 462 q 16 480 4 474 q 51 491 27 486 q 179 507 88 498 q 349 517 270 516 q 410 512 387 517 q 438 497 431 508 q 431 468 446 487 q 338 351 412 446 q 328 338 332 343 q 322 329 321 330 q 340 329 324 328 q 413 326 385 333 q 425 321 420 324 q 427 311 429 317 q 420 304 425 304 q 409 306 416 304 q 333 305 383 311 z "},"8":{"ha":644,"x_min":0,"x_max":644,"o":"m 477 203 l 477 203 q 530 256 498 221 q 587 332 563 292 q 605 405 610 372 q 544 453 600 438 q 435 457 502 463 q 301 433 368 452 q 193 386 234 415 q 161 317 151 356 q 256 233 171 279 q 281 221 269 227 q 312 206 298 214 q 320 205 316 206 q 346 189 336 199 q 349 185 347 187 q 350 183 349 184 q 366 172 357 178 q 448 79 428 125 q 433 -24 471 20 q 323 -95 395 -68 q 177 -126 252 -121 q 51 -114 101 -132 q 3 -53 0 -96 q 52 36 10 -12 q 143 124 93 84 q 229 184 194 165 q 234 187 231 186 q 249 198 247 194 q 237 209 250 201 q 126 308 140 260 q 154 393 112 355 q 269 457 197 431 q 418 491 341 482 q 549 487 494 499 q 632 430 620 468 q 620 346 644 392 q 557 258 595 300 q 488 189 519 216 q 477 184 482 184 q 470 190 471 185 q 477 203 469 195 m 283 171 l 283 171 q 245 155 267 167 q 167 101 216 138 q 77 20 118 63 q 30 -57 36 -23 q 73 -92 28 -82 q 181 -96 117 -101 q 307 -71 246 -91 q 401 -17 368 -52 q 416 66 435 18 q 369 125 404 94 q 366 128 368 127 q 359 134 361 132 q 355 134 357 135 q 349 129 353 133 q 345 125 347 127 q 332 117 337 119 q 322 117 326 115 q 316 121 319 118 q 312 126 313 123 q 309 132 310 130 q 309 135 309 135 q 311 148 307 144 q 320 153 315 152 q 325 156 323 155 q 322 160 326 157 q 309 169 319 163 q 297 174 302 174 q 284 171 293 174 q 283 171 284 171 z "},"9":{"ha":623,"x_min":0,"x_max":623,"o":"m 572 409 l 572 409 q 614 402 605 417 q 599 359 623 387 q 578 335 592 351 q 486 229 543 296 q 374 87 429 162 q 291 -48 319 13 q 286 -135 263 -109 q 292 -148 293 -142 q 286 -154 292 -153 q 271 -149 279 -155 q 254 -74 243 -122 q 300 31 266 -26 q 377 142 335 88 q 451 236 418 197 q 481 273 471 259 q 503 300 494 289 q 520 328 526 328 q 463 292 514 327 q 334 215 407 256 q 190 147 261 174 q 67 125 119 120 q 5 186 16 130 q 22 260 0 218 q 83 346 43 302 q 173 428 123 390 q 272 489 222 465 q 365 516 322 513 q 433 492 407 519 q 459 401 459 466 q 449 380 459 387 q 427 376 439 374 q 408 384 414 377 q 406 401 401 391 q 413 408 410 407 q 419 410 416 410 q 423 411 422 410 q 424 417 425 412 q 420 433 424 422 q 362 481 407 481 q 260 447 318 480 q 148 366 203 414 q 60 268 94 317 q 31 188 26 220 q 92 152 39 146 q 218 192 144 157 q 368 273 292 227 q 500 358 444 319 q 572 409 556 397 z "}," ":{"ha":174,"x_min":0,"x_max":0,"o":""},"!":{"ha":420,"x_min":0,"x_max":420,"o":"m 25 -108 l 25 -108 q 38 -108 33 -105 q 44 -117 43 -111 q 39 -129 45 -123 q 32 -137 34 -133 q 29 -144 30 -140 q 25 -152 28 -149 q 16 -156 23 -155 q 5 -151 9 -157 q 1 -138 2 -146 q 3 -124 0 -130 q 12 -115 7 -119 q 21 -110 17 -111 q 25 -108 25 -108 m 379 496 l 379 496 q 414 494 409 510 q 413 450 420 477 q 397 403 406 422 q 359 337 379 360 q 334 322 342 323 q 322 325 326 320 q 317 334 319 329 q 315 341 317 339 q 309 340 313 343 q 296 324 304 336 q 143 96 215 210 q 64 -66 71 -18 q 58 -84 64 -81 q 47 -81 52 -87 q 41 -62 41 -75 q 112 103 46 -9 q 256 328 178 215 q 379 496 335 441 m 335 363 l 335 363 q 341 372 336 364 q 352 389 346 379 q 361 406 357 398 q 364 414 365 413 q 355 406 363 415 q 347 396 351 401 q 332 375 337 384 q 334 363 327 366 l 335 363 z "},"\"":{"ha":203,"x_min":0,"x_max":134,"o":"m 68 410 l 68 410 q 61 423 60 413 q 68 443 62 433 q 79 460 74 454 q 82 466 81 463 q 81 473 82 469 q 83 485 81 479 q 96 494 85 490 q 130 490 125 497 q 126 472 134 483 q 108 450 118 460 q 99 441 102 445 q 91 426 94 434 q 82 412 87 417 q 68 410 77 406 m 7 409 l 7 409 q 0 421 0 411 q 5 442 0 431 q 14 459 9 453 q 19 465 18 463 q 20 466 20 465 q 20 466 20 466 q 20 467 20 467 q 19 471 20 468 q 30 490 18 484 q 57 497 43 497 q 76 488 71 496 q 65 464 81 480 q 54 454 60 459 q 37 438 45 446 q 24 421 28 430 q 17 410 21 414 q 7 409 14 406 z "},"#":{"ha":669,"x_min":0,"x_max":620,"o":"m 248 -78 l 248 -78 q 323 86 273 -3 q 330 106 333 103 q 311 105 326 109 q 288 102 302 103 q 224 94 256 98 q 213 93 218 94 q 193 90 199 92 q 182 83 186 88 q 172 68 178 79 q 165 54 170 62 q 106 -58 125 -11 q 108 -114 88 -105 q 107 -120 110 -117 q 100 -123 104 -123 q 84 -66 70 -117 q 137 57 98 -15 q 146 73 142 66 q 150 84 153 82 q 132 83 148 85 q 129 82 131 82 q 42 71 79 75 q 26 76 31 71 q 25 88 22 81 q 40 96 28 95 q 73 101 48 98 q 135 111 98 105 q 145 112 140 111 q 163 115 157 113 q 173 121 170 117 q 181 134 176 125 q 191 150 184 140 q 229 212 210 182 q 239 228 235 222 q 247 242 249 240 q 227 243 245 245 q 214 242 222 243 q 110 231 155 237 q 76 216 89 227 q 64 208 69 212 q 44 202 52 203 q 35 201 37 200 q 21 237 0 223 q 100 260 42 252 q 235 272 159 269 q 245 273 241 272 q 263 274 257 273 q 272 278 269 275 q 281 290 275 282 q 291 306 284 296 q 303 323 298 316 q 315 340 312 336 q 321 352 320 347 q 319 359 321 356 q 315 365 317 362 q 311 371 312 368 q 313 379 309 374 q 327 393 316 385 q 358 415 337 401 q 381 420 372 424 q 392 406 389 416 q 391 387 394 396 q 366 349 384 371 q 344 320 356 337 q 326 298 334 307 q 314 280 314 286 q 338 275 315 275 q 404 276 372 276 q 420 275 414 276 q 433 275 429 275 q 441 280 437 276 q 452 295 446 285 q 495 359 479 335 q 513 383 512 382 q 524 393 517 389 q 537 393 530 396 q 545 378 543 388 q 543 363 547 369 q 534 351 543 362 q 494 298 521 334 q 486 288 490 292 q 480 277 479 279 q 493 275 481 275 q 502 275 497 275 q 604 269 589 273 q 618 261 616 267 q 614 252 620 256 q 597 250 608 248 q 499 254 549 254 q 488 254 492 254 q 469 254 475 254 q 459 249 463 253 q 449 235 455 244 q 440 222 446 229 q 412 180 427 202 q 403 165 408 173 q 399 160 401 163 q 390 142 389 145 q 404 142 391 140 q 424 143 412 142 q 546 141 498 148 q 587 110 593 134 q 579 99 585 103 q 566 98 572 96 q 404 111 508 117 q 397 111 400 111 q 374 109 381 110 q 363 103 367 108 q 353 87 359 98 q 345 72 349 81 q 267 -90 292 -16 q 262 -101 265 -96 q 252 -103 258 -105 q 245 -93 245 -100 q 248 -78 245 -85 m 297 132 l 297 132 q 325 134 315 134 q 345 137 338 135 q 356 146 351 139 q 371 168 361 153 q 376 176 373 172 q 410 231 393 205 q 416 241 414 237 q 422 252 423 250 q 410 252 421 254 q 397 252 405 252 q 337 250 367 251 q 336 250 336 250 q 323 250 329 250 q 300 248 308 250 q 288 242 293 247 q 276 225 283 237 q 265 210 272 219 q 258 200 262 205 q 228 155 243 178 q 217 138 222 144 q 209 123 207 125 q 230 123 211 121 q 239 125 234 124 q 297 132 268 129 z "},"$":{"ha":528,"x_min":0,"x_max":459,"o":"m 450 498 l 450 498 q 356 358 417 445 q 346 345 350 351 q 338 333 339 338 q 347 324 337 329 q 378 291 368 311 q 380 247 387 270 q 311 194 370 208 q 289 195 297 193 q 279 203 281 198 q 278 215 277 209 q 282 227 279 221 q 288 236 285 232 q 290 239 290 239 q 302 243 296 245 q 313 236 308 241 q 330 235 321 230 q 345 252 339 240 q 349 276 351 263 q 334 296 348 288 q 316 300 321 303 q 305 286 310 296 q 298 275 302 281 q 273 239 286 257 q 236 186 254 213 q 229 176 231 180 q 223 165 222 168 q 235 161 224 163 q 243 159 239 160 q 322 131 292 149 q 326 81 351 113 q 248 28 300 52 q 141 -1 196 4 q 124 0 130 -1 q 113 -1 117 1 q 102 -13 108 -3 q 23 -159 39 -111 q 14 -172 20 -170 q 4 -169 7 -174 q 3 -154 0 -164 q 79 -13 14 -119 q 83 -5 81 -8 q 87 1 86 -1 q 87 4 88 3 q 82 5 85 5 q 71 10 78 7 q 60 16 65 14 q 52 32 51 26 q 59 38 53 37 q 73 31 66 38 q 86 24 79 26 q 101 24 96 20 q 109 35 105 27 q 114 45 111 40 q 161 118 136 81 q 170 132 167 127 q 176 143 177 140 q 166 150 176 146 q 157 154 162 151 q 122 180 134 163 q 129 234 109 205 q 185 289 148 264 q 264 327 222 315 q 290 332 281 331 q 299 334 296 333 q 306 340 302 336 q 315 354 309 345 q 323 366 318 359 q 344 399 334 383 q 355 414 349 407 q 365 431 362 426 q 366 436 367 435 q 361 435 364 436 q 352 433 357 433 q 342 435 347 432 q 336 448 338 439 q 337 462 334 456 q 348 470 341 468 q 364 481 352 471 q 391 505 376 492 q 395 509 393 507 q 443 528 427 536 q 450 498 459 521 m 232 133 l 232 133 q 218 136 223 134 q 207 138 210 138 q 200 135 203 138 q 193 124 197 132 q 186 115 190 120 q 168 87 177 101 q 136 39 151 62 q 133 35 134 37 q 126 21 124 23 q 147 20 128 18 q 150 20 149 20 q 250 52 203 27 q 311 94 296 77 q 301 118 323 110 q 243 131 279 125 q 232 133 237 132 m 266 279 l 266 279 q 273 290 270 286 q 279 301 281 300 q 257 296 277 303 q 198 264 225 284 q 155 224 170 243 q 143 195 139 204 q 167 180 149 186 q 188 173 181 174 q 199 176 195 172 q 208 189 203 180 q 217 205 211 195 q 266 279 241 243 z "},"%":{"ha":506,"x_min":0,"x_max":438,"o":"m 292 71 l 292 71 q 326 17 317 50 q 317 -45 334 -16 q 256 -87 293 -82 q 189 -74 219 -92 q 154 -22 159 -56 q 190 50 150 11 q 198 55 195 54 q 202 56 200 56 q 208 55 204 55 q 217 59 211 56 q 233 72 222 63 q 292 71 260 96 m 295 -36 l 295 -36 q 300 2 304 -18 q 286 37 296 22 q 268 54 275 52 q 264 39 260 56 q 262 26 266 32 q 252 19 259 20 q 246 18 252 19 q 231 15 239 16 q 213 14 222 14 q 200 18 205 15 q 188 -3 193 10 q 183 -31 182 -17 q 200 -55 185 -45 q 251 -64 224 -68 q 295 -36 279 -60 m 422 460 l 422 460 q 435 430 438 448 q 398 378 433 412 q 395 375 397 376 q 267 246 353 334 q 106 69 180 159 q 20 -68 31 -20 q 14 -80 20 -78 q 4 -78 9 -82 q 1 -64 0 -74 q 83 82 12 -9 q 237 260 155 174 q 364 390 320 347 q 381 407 374 399 q 405 431 397 421 q 408 446 413 441 q 361 451 400 451 q 274 448 321 452 q 196 435 227 444 q 174 414 165 427 q 189 359 197 387 q 151 317 180 332 q 98 307 126 304 q 43 319 69 310 q 10 352 9 332 q 31 390 11 372 q 76 420 51 409 q 116 428 101 431 q 130 403 135 422 q 122 382 126 390 q 114 372 118 375 q 106 370 110 370 q 99 373 102 370 q 93 378 96 375 q 89 383 90 380 q 87 385 87 385 q 84 388 86 388 q 81 386 83 387 q 77 383 79 385 q 46 350 43 363 q 74 332 50 337 q 123 333 98 328 q 160 356 149 339 q 149 404 170 374 q 156 451 123 435 q 247 473 189 468 q 358 475 306 479 q 422 460 410 471 z "},"&":{"ha":604,"x_min":0,"x_max":508,"o":"m 28 -85 l 28 -85 q 10 -25 0 -60 q 52 46 20 9 q 120 115 84 83 q 179 164 155 146 q 187 171 184 168 q 205 186 198 180 q 226 203 220 197 q 234 216 233 209 q 237 239 236 224 q 241 271 238 250 q 304 452 260 397 q 396 509 348 506 q 476 485 444 512 q 503 420 508 457 q 440 336 495 387 q 310 225 385 284 q 288 209 296 214 q 274 198 278 203 q 269 184 269 193 q 268 155 268 175 q 281 26 269 88 q 296 -22 287 1 q 312 -50 304 -47 q 345 -41 320 -53 q 348 -39 346 -40 q 370 -25 354 -37 q 404 2 387 -13 q 430 29 421 16 q 431 47 439 42 q 422 57 424 50 q 422 69 420 63 q 426 74 422 70 q 434 83 429 78 q 446 92 439 88 q 458 95 452 96 q 469 87 464 94 q 479 64 475 80 q 464 9 484 37 q 413 -41 444 -19 q 356 -73 382 -64 q 334 -91 332 -82 q 354 -107 336 -100 q 396 -117 372 -114 q 437 -115 419 -119 q 452 -117 446 -113 q 456 -126 458 -121 q 441 -134 454 -131 q 319 -111 375 -150 q 313 -108 315 -109 q 294 -97 300 -100 q 282 -94 288 -94 q 266 -96 277 -94 q 242 -100 257 -98 q 123 -111 185 -111 q 28 -85 62 -111 m 279 309 l 279 309 q 275 284 277 295 q 273 244 268 248 q 306 265 277 241 q 320 277 312 271 q 427 366 382 326 q 478 429 472 406 q 460 461 480 446 q 410 480 441 477 q 347 461 379 484 q 294 379 315 439 q 279 309 286 354 m 205 142 l 205 142 q 202 139 204 141 q 156 100 188 127 q 93 40 125 73 q 45 -21 61 7 q 45 -65 28 -50 q 127 -80 71 -83 q 234 -68 184 -77 q 254 -65 246 -66 q 272 -60 270 -63 q 269 -45 274 -57 q 262 -31 266 -39 q 248 19 254 -7 q 235 116 238 65 q 235 144 235 134 q 232 161 236 161 q 209 145 228 161 q 205 142 208 144 z "},"'":{"ha":134,"x_min":0,"x_max":74,"o":"m 7 410 l 7 410 q 1 423 0 413 q 7 443 2 433 q 19 460 13 454 q 21 466 21 463 q 21 473 22 469 q 22 485 20 479 q 36 494 24 490 q 69 490 64 497 q 66 472 74 483 q 47 450 58 460 q 39 441 42 445 q 31 427 34 435 q 22 412 27 417 q 7 410 17 406 z "},"(":{"ha":340,"x_min":0,"x_max":534,"o":"m 484 562 l 484 562 q 342 523 420 572 q 192 387 264 473 q 74 199 120 301 q 28 1 27 98 q 96 -165 28 -96 q 101 -177 101 -171 q 96 -183 100 -182 q 83 -177 91 -184 q 4 5 7 -99 q 46 217 0 109 q 169 415 93 325 q 331 557 245 506 q 490 597 416 608 q 533 551 528 590 q 518 514 534 524 q 478 521 502 505 q 470 530 473 525 q 472 542 468 536 q 475 546 473 544 q 480 550 477 548 q 487 556 485 553 q 484 562 490 559 z "},")":{"ha":331,"x_min":-195,"x_max":331,"o":"m -181 -185 l -181 -185 q -194 -177 -193 -182 q -191 -170 -195 -173 q -178 -168 -186 -167 q -9 -148 -90 -191 q 136 -23 71 -106 q 242 159 200 60 q 295 348 283 258 q 279 497 306 439 q 265 513 271 511 q 250 512 258 515 q 238 510 245 511 q 224 513 232 510 q 199 541 199 526 q 224 568 200 556 q 285 553 260 583 q 330 396 331 496 q 288 186 328 297 q 177 -20 248 75 q 15 -163 107 -115 q -181 -185 -77 -212 z "},"*":{"ha":220,"x_min":0,"x_max":163,"o":"m 48 482 l 48 482 q 62 485 62 481 q 53 494 62 488 q 40 506 42 496 q 43 525 38 515 q 57 538 47 535 q 79 530 66 541 q 87 505 84 522 q 87 501 87 503 q 90 492 89 493 q 97 496 92 491 q 106 503 100 498 q 138 522 130 519 q 156 520 150 525 q 160 509 163 516 q 144 497 157 502 q 122 484 141 496 q 114 478 116 480 q 114 476 113 476 q 119 475 116 475 q 135 472 126 475 q 144 464 142 469 q 142 456 145 459 q 131 456 138 453 q 104 461 120 459 q 92 459 93 462 q 93 448 90 456 q 96 439 94 444 q 102 429 100 434 q 98 420 103 424 q 89 417 93 415 q 81 425 85 419 q 73 442 73 435 q 70 448 72 447 q 62 444 68 448 q 38 428 47 435 q 28 420 29 422 q 26 418 27 419 q 20 413 22 414 q 13 416 17 412 q 8 424 7 420 q 14 433 9 427 q 50 462 23 441 q 14 463 28 461 q 2 471 0 465 q 15 481 2 478 q 48 482 28 484 z "},"+":{"ha":437,"x_min":0,"x_max":376,"o":"m 102 -16 l 102 -16 q 119 16 107 -5 q 166 104 140 55 q 174 119 171 113 q 179 133 181 131 q 159 132 176 135 q 153 131 156 131 q 54 106 87 119 q 21 94 21 94 q 5 95 10 90 q 2 110 0 101 q 14 124 4 119 q 16 125 14 124 q 57 137 20 127 q 161 155 94 146 q 176 157 170 156 q 188 158 184 157 q 195 165 193 160 q 202 184 198 171 q 207 220 214 213 q 206 248 196 229 q 234 280 216 266 q 266 294 252 295 q 279 264 280 293 q 239 180 262 223 q 234 171 236 174 q 231 162 230 163 q 241 161 232 161 q 250 162 244 161 q 355 162 298 164 q 371 157 366 161 q 372 148 376 152 q 355 143 369 143 q 250 142 297 144 q 247 142 248 142 q 224 139 232 140 q 214 134 217 138 q 205 120 210 130 q 197 104 202 114 q 180 75 189 89 q 123 -26 149 23 q 116 -36 120 -33 q 106 -37 112 -39 q 99 -28 99 -33 q 102 -16 98 -22 z "},",":{"ha":119,"x_min":0,"x_max":71,"o":"m 1 -64 l 1 -64 q 3 -59 0 -60 q 11 -57 6 -58 q 20 -55 16 -56 q 29 -49 25 -53 q 30 -45 31 -47 q 28 -41 29 -43 q 25 -31 26 -37 q 27 -20 24 -26 q 38 -12 31 -14 q 50 -13 44 -9 q 59 -51 71 -27 q 39 -67 52 -63 q 14 -71 26 -72 q 1 -64 3 -69 z "},"-":{"ha":376,"x_min":0,"x_max":327,"o":"m 173 149 l 173 149 q 239 149 206 148 q 309 149 275 150 q 323 143 319 149 q 323 132 327 138 q 310 125 320 126 q 279 125 302 125 q 192 124 243 125 q 100 118 140 123 q 56 103 60 113 q 32 101 47 98 q 8 112 17 104 q 9 128 0 119 q 57 143 18 137 q 173 149 95 149 z "},".":{"ha":112,"x_min":0,"x_max":52,"o":"m 24 -61 l 24 -61 q 7 -57 13 -64 q 1 -41 1 -51 q 3 -23 0 -31 q 26 -11 12 -9 q 49 -25 41 -12 q 50 -39 52 -32 q 42 -50 48 -45 q 32 -56 37 -52 q 24 -61 26 -60 z "},"/":{"ha":412,"x_min":0,"x_max":467,"o":"m 403 574 l 403 574 q 448 594 428 596 q 455 562 467 591 q 275 273 383 436 q 112 16 184 136 q 22 -172 39 -105 q 18 -183 21 -179 q 7 -186 14 -188 q 0 -177 1 -184 q 2 -162 0 -170 q 72 -7 14 -113 q 203 220 130 99 q 338 437 277 340 q 350 463 347 451 q 356 486 354 475 q 367 523 358 503 q 403 574 376 544 z "},":":{"ha":203,"x_min":0,"x_max":138,"o":"m 90 176 l 90 176 q 112 188 98 190 q 134 174 127 186 q 136 161 138 168 q 127 150 134 154 q 118 144 123 147 q 110 138 113 140 q 93 142 99 136 q 86 158 87 148 q 90 176 85 168 m 4 14 l 4 14 q 27 26 12 28 q 49 12 41 24 q 51 -2 52 5 q 43 -13 49 -9 q 32 -19 37 -16 q 24 -24 27 -23 q 8 -21 14 -27 q 1 -4 2 -14 q 4 14 0 5 z "},";":{"ha":199,"x_min":0,"x_max":146,"o":"m 60 -10 l 60 -10 q 40 -27 53 -22 q 15 -30 26 -31 q 1 -24 3 -28 q 3 -19 0 -20 q 12 -17 6 -18 q 21 -14 16 -16 q 29 -9 26 -13 q 30 -5 31 -7 q 28 0 30 -3 q 25 9 26 4 q 28 20 24 14 q 38 29 31 26 q 51 28 44 31 q 60 -10 72 13 m 97 164 l 97 164 q 120 177 105 178 q 142 163 134 176 q 144 149 146 156 q 135 138 142 142 q 125 132 130 136 q 117 127 121 128 q 101 130 106 124 q 94 146 95 136 q 97 164 94 156 z "},"<":{"ha":430,"x_min":0,"x_max":401,"o":"m 343 202 l 343 202 q 332 202 336 201 q 327 206 328 203 q 324 211 325 208 q 321 216 323 214 q 313 217 319 218 q 294 210 307 216 q 98 102 193 157 q 84 96 91 99 q 58 75 58 81 q 81 60 59 69 q 95 53 87 57 q 188 3 142 28 q 247 -28 226 -17 q 254 -38 254 -33 q 250 -46 254 -43 q 239 -46 245 -48 q 171 -16 214 -36 q 87 24 128 4 q 28 53 45 44 q 22 56 23 55 q 8 66 15 59 q 1 82 1 74 q 12 96 0 90 q 14 97 12 96 q 102 148 31 108 q 251 229 173 189 q 368 279 329 269 q 396 263 392 279 q 387 228 401 246 q 343 202 374 209 z "},"=":{"ha":437,"x_min":0,"x_max":377,"o":"m 56 28 l 56 28 q 32 26 46 23 q 8 37 17 29 q 9 54 0 45 q 57 68 18 62 q 173 74 95 75 q 231 75 202 74 q 308 75 271 76 q 322 69 319 75 q 323 58 326 64 q 310 51 320 52 q 279 50 302 50 q 192 50 243 51 q 100 43 140 48 q 56 28 60 39 m 358 184 l 358 184 q 373 178 370 184 q 374 167 377 173 q 360 160 370 161 q 330 160 353 160 q 242 159 294 160 q 150 153 191 157 q 106 138 110 148 q 82 135 96 132 q 59 146 67 138 q 59 163 50 155 q 106 178 68 172 q 223 183 144 184 q 281 184 252 183 q 358 184 321 185 z "},">":{"ha":434,"x_min":0,"x_max":384,"o":"m 16 -37 l 16 -37 q 4 -18 0 -28 q 24 2 9 -7 q 54 17 39 11 q 75 26 69 24 q 76 26 76 26 q 190 87 127 53 q 299 147 253 121 q 325 167 326 161 q 304 182 325 173 q 289 190 297 186 q 187 236 237 215 q 135 259 153 250 q 128 272 127 264 q 134 285 129 280 q 145 288 139 290 q 216 257 171 278 q 304 215 262 235 q 360 188 346 195 q 362 186 361 187 q 376 176 369 184 q 383 160 382 169 q 372 146 384 152 q 370 145 372 146 q 282 94 353 135 q 133 13 211 54 q 16 -37 55 -27 z "},"?":{"ha":538,"x_min":0,"x_max":496,"o":"m 8 -173 l 8 -173 q 30 -162 18 -157 q 46 -184 42 -167 q 44 -200 47 -193 q 35 -212 41 -208 q 26 -217 30 -214 q 17 -222 20 -221 q 4 -214 7 -223 q 2 -194 0 -205 q 8 -173 3 -182 m 414 326 l 414 326 q 259 161 344 237 q 131 30 189 98 q 45 -124 73 -38 q 35 -135 41 -135 q 23 -127 28 -134 q 21 -109 18 -120 q 109 55 52 -13 q 233 183 165 123 q 312 260 273 220 q 387 347 351 300 q 455 478 453 437 q 416 522 457 519 q 312 504 375 526 q 186 450 250 483 q 80 384 123 416 q 37 333 38 351 q 53 314 39 318 q 84 313 66 310 q 113 322 101 315 q 119 331 117 326 q 124 339 121 336 q 134 341 127 342 q 153 330 141 339 q 163 306 169 317 q 143 290 158 296 q 117 283 129 283 q 35 293 59 280 q 9 329 10 307 q 59 403 10 362 q 182 481 109 444 q 328 537 255 517 q 449 546 401 556 q 494 485 496 536 q 414 326 492 433 z "},"@":{"ha":741,"x_min":0,"x_max":675,"o":"m 368 144 l 368 144 q 323 116 347 132 q 281 85 298 100 q 267 65 264 71 q 300 69 269 60 q 384 104 342 81 q 470 139 429 130 q 498 127 488 141 q 510 91 507 114 q 552 90 522 77 q 609 135 583 104 q 635 202 635 165 q 547 295 627 271 q 362 300 468 320 q 165 210 242 274 q 64 71 88 145 q 78 -58 40 -3 q 227 -120 116 -113 q 531 -58 338 -127 q 547 -57 543 -54 q 548 -67 551 -61 q 536 -77 545 -73 q 203 -144 323 -153 q 41 -72 82 -134 q 27 75 0 -9 q 136 231 54 159 q 345 331 219 303 q 511 337 434 349 q 632 283 589 325 q 663 174 675 242 q 618 101 652 132 q 536 62 583 70 q 506 64 516 60 q 490 77 495 68 q 484 92 486 85 q 480 101 482 98 q 475 104 478 104 q 391 73 441 97 q 294 35 340 48 q 221 43 220 20 q 264 104 222 66 q 354 168 305 142 q 426 185 403 195 q 439 173 436 180 q 435 153 443 167 q 424 141 429 142 q 412 145 418 141 q 396 151 406 149 q 368 144 385 153 z "},"A":{"ha":1356,"x_min":0,"x_max":1661,"o":"m 1067 370 l 1067 370 q 1010 321 1048 353 q 831 166 941 260 q 595 -27 722 73 q 350 -204 469 -126 q 144 -313 231 -283 q 26 -300 57 -344 q 18 -178 0 -258 q 87 -3 37 -98 q 211 180 138 92 q 368 325 284 267 q 536 387 452 382 q 694 321 621 392 q 699 304 703 313 q 686 289 694 295 q 662 290 677 284 q 636 307 646 296 q 631 325 625 317 q 464 335 552 370 q 293 215 376 299 q 149 29 211 130 q 59 -158 87 -72 q 54 -283 32 -244 q 153 -279 77 -313 q 338 -169 230 -244 q 563 -2 446 -94 q 780 175 679 90 q 945 315 882 260 q 969 336 958 327 q 986 359 994 357 q 947 352 977 360 q 928 348 938 350 q 880 336 901 341 q 840 327 860 332 q 792 315 819 321 q 781 306 790 307 q 762 310 771 305 q 749 323 752 315 q 756 340 746 332 q 796 355 766 349 q 1029 409 912 384 q 1038 411 1034 410 q 1065 419 1057 414 q 1087 435 1074 424 q 1088 437 1088 436 q 1153 491 1120 463 q 1324 632 1237 562 q 1501 762 1411 702 q 1540 782 1514 770 q 1592 802 1566 794 q 1633 805 1619 809 q 1638 777 1647 800 q 1577 670 1622 741 q 1496 546 1532 600 q 1472 508 1479 519 q 1468 503 1470 505 q 1464 496 1464 498 q 1470 495 1464 494 q 1525 503 1489 498 q 1597 508 1561 507 q 1649 502 1632 509 q 1660 490 1659 496 q 1655 482 1661 484 q 1640 484 1649 479 q 1593 484 1629 488 q 1519 474 1557 480 q 1462 465 1480 468 q 1458 464 1460 464 q 1441 456 1447 462 q 1430 441 1435 451 q 1427 436 1428 439 q 1319 267 1373 352 q 1027 -205 1167 33 q 1022 -224 1023 -214 q 1020 -237 1022 -231 q 1009 -245 1017 -242 q 995 -242 1002 -248 q 988 -222 989 -237 q 1000 -183 988 -208 q 1350 385 1168 106 q 1381 433 1365 409 q 1386 447 1388 444 q 1372 447 1384 450 q 1122 393 1246 422 q 1096 387 1109 390 q 1081 381 1086 385 q 1069 371 1075 377 q 1067 370 1068 371 m 1158 447 l 1158 447 q 1156 436 1143 433 q 1179 441 1167 438 q 1391 482 1284 464 q 1414 489 1408 484 q 1426 505 1420 494 q 1433 517 1429 510 q 1465 565 1444 533 q 1528 663 1495 610 q 1581 747 1562 715 q 1581 759 1586 758 q 1564 755 1575 760 q 1540 743 1552 750 q 1518 730 1527 736 q 1351 608 1433 674 q 1191 475 1270 543 q 1158 447 1174 461 z "},"B":{"ha":1219,"x_min":0,"x_max":1217,"o":"m 60 384 l 60 384 q 256 539 138 469 q 501 663 373 610 q 739 748 629 716 q 755 753 749 751 q 766 756 763 754 q 773 761 770 758 q 781 771 776 764 q 789 781 784 775 q 806 799 794 789 q 829 809 819 808 q 841 789 840 810 q 841 787 841 788 q 842 777 841 779 q 849 778 844 776 q 857 780 852 779 q 1117 788 1053 824 q 1136 665 1181 752 q 962 469 1092 578 q 960 467 960 468 q 949 457 949 459 q 967 458 949 455 q 1079 460 1020 467 q 1178 420 1139 453 q 1208 318 1217 387 q 1080 101 1189 210 q 819 -104 970 -7 q 518 -272 667 -201 q 272 -375 370 -342 q 253 -372 259 -378 q 248 -354 248 -365 q 254 -336 248 -344 q 296 -309 272 -319 q 313 -308 304 -304 q 325 -317 322 -311 q 547 -216 413 -284 q 819 -59 682 -149 q 1056 130 957 31 q 1173 323 1154 229 q 1149 397 1179 374 q 1074 424 1120 420 q 979 421 1027 427 q 902 406 932 414 q 876 397 884 402 q 857 385 867 393 q 846 376 852 381 q 798 343 838 370 q 710 289 758 316 q 629 257 661 262 q 603 288 596 251 q 655 337 610 309 q 753 389 701 365 q 831 422 805 413 q 840 425 836 424 q 859 434 850 430 q 880 447 868 438 q 1032 579 966 511 q 1114 699 1097 648 q 1072 766 1131 750 q 850 741 1013 781 q 838 738 844 739 q 819 732 827 736 q 804 716 810 728 q 608 394 714 551 q 448 137 524 268 q 439 115 441 124 q 437 98 437 105 q 436 87 437 92 q 432 77 435 82 q 417 64 427 71 q 398 53 408 56 q 378 57 387 50 q 373 70 372 63 q 378 83 374 77 q 753 693 566 406 q 759 710 760 705 q 739 709 758 715 q 363 557 543 652 q 262 496 330 538 q 131 400 195 454 q 45 297 67 347 q 81 213 23 247 q 92 200 92 206 q 85 191 92 193 q 66 194 78 189 q 6 283 0 233 q 60 384 12 333 z "},"C":{"ha":1486,"x_min":0,"x_max":1461,"o":"m 248 -347 l 248 -347 q 52 -273 104 -334 q 13 -127 0 -213 q 77 48 26 -41 q 191 210 127 138 q 563 535 345 385 q 999 767 780 686 q 1102 797 1039 782 q 1232 817 1164 812 q 1354 803 1299 821 q 1433 734 1409 785 q 1422 589 1461 665 q 1307 448 1384 513 q 1138 347 1230 383 q 968 319 1047 310 q 949 334 956 322 q 951 359 943 347 q 990 374 960 372 q 1001 374 998 375 q 1005 370 1004 372 q 1007 365 1006 368 q 1009 358 1007 361 q 1019 355 1012 355 q 1151 393 1077 357 q 1290 484 1224 428 q 1389 601 1355 539 q 1400 718 1422 663 q 1329 773 1379 760 q 1215 779 1278 785 q 1095 758 1152 772 q 1005 730 1038 743 q 583 504 794 651 q 221 189 372 357 q 117 47 166 127 q 51 -110 68 -33 q 78 -243 35 -188 q 250 -310 121 -298 q 658 -243 443 -321 q 1074 -41 873 -165 q 1432 224 1274 83 q 1446 227 1439 229 q 1455 218 1453 225 q 1446 203 1456 212 q 1180 -7 1322 92 q 878 -186 1037 -106 q 558 -312 719 -267 q 248 -347 397 -357 z "},"D":{"ha":1284,"x_min":0,"x_max":1416,"o":"m 264 332 l 264 332 q 173 414 173 365 q 223 517 172 464 q 339 613 274 570 q 444 675 404 656 q 772 783 600 747 q 1094 810 945 819 q 1330 740 1244 802 q 1399 555 1416 677 q 1220 241 1381 432 q 750 -135 1029 21 q 184 -341 472 -292 q 129 -349 166 -345 q 55 -352 91 -354 q 8 -335 20 -351 q 10 -312 0 -319 q 35 -315 20 -304 q 122 -315 64 -324 q 221 -297 179 -307 q 231 -295 227 -296 q 758 -88 501 -237 q 1192 265 1015 62 q 1361 561 1347 449 q 1291 724 1376 673 q 1062 777 1205 775 q 757 742 918 779 q 459 641 596 705 q 375 593 431 628 q 270 513 319 558 q 213 426 221 469 q 273 355 205 383 q 282 344 281 351 q 279 333 284 338 q 264 332 275 329 m 345 -27 l 345 -27 q 476 220 380 68 q 648 481 572 372 q 673 519 663 503 q 685 542 684 534 q 682 552 686 549 q 674 557 679 555 q 668 560 670 558 q 667 566 665 562 q 674 577 668 570 q 707 611 684 588 q 755 652 731 634 q 791 663 780 669 q 796 646 799 658 q 785 622 793 635 q 770 599 777 609 q 763 589 766 593 q 657 432 724 529 q 483 174 569 306 q 370 -36 397 41 q 359 -51 366 -49 q 347 -45 351 -52 q 345 -27 342 -39 z "},"E":{"ha":1284,"x_min":0,"x_max":1442,"o":"m 690 275 l 690 275 q 685 274 688 275 q 600 266 657 271 q 479 261 543 260 q 367 277 415 262 q 309 326 319 291 q 383 451 301 379 q 601 596 465 524 q 887 726 736 669 q 1169 804 1039 782 q 1370 796 1299 826 q 1417 667 1442 766 q 1406 651 1413 654 q 1393 654 1398 648 q 1392 672 1388 660 q 1341 768 1410 750 q 1150 762 1272 787 q 887 684 1028 736 q 620 565 746 631 q 416 438 494 500 q 346 334 339 376 q 409 298 354 306 q 542 295 464 290 q 698 311 620 300 q 830 331 776 321 q 891 345 867 338 q 945 364 915 353 q 960 370 952 367 q 1046 400 1002 386 q 1119 418 1078 411 q 1195 424 1160 426 q 1217 399 1221 413 q 1194 374 1213 386 q 1157 359 1175 363 q 971 320 1065 338 q 907 306 933 313 q 845 284 880 299 q 658 199 750 244 q 455 93 583 164 q 211 -62 326 21 q 63 -216 96 -146 q 105 -286 43 -269 q 277 -292 166 -302 q 517 -256 387 -282 q 764 -199 646 -231 q 957 -142 882 -168 q 1033 -106 1031 -116 q 1049 -90 1033 -96 q 1085 -80 1066 -83 q 1112 -77 1104 -77 q 1131 -101 1133 -86 q 1109 -125 1128 -115 q 1050 -149 1081 -139 q 1041 -153 1046 -151 q 912 -193 1006 -165 q 693 -253 819 -221 q 440 -308 568 -285 q 207 -334 311 -332 q 52 -307 103 -337 q 28 -203 0 -277 q 130 -81 54 -145 q 302 45 205 -16 q 492 156 400 106 q 642 233 583 205 q 677 249 659 241 q 714 267 700 259 q 725 277 728 274 q 690 275 722 279 z "},"F":{"ha":586,"x_min":0,"x_max":825,"o":"m 138 278 l 138 278 q 10 374 20 309 q 90 526 0 438 q 225 632 134 570 q 424 748 316 694 q 624 821 531 802 q 764 795 717 840 q 781 691 798 757 q 726 557 764 626 q 656 439 688 488 q 642 418 648 428 q 641 413 640 414 q 646 413 642 412 q 654 416 650 414 q 660 418 657 417 q 804 458 731 440 q 816 456 810 460 q 824 446 822 453 q 820 435 825 439 q 808 430 815 431 q 673 390 740 412 q 636 378 655 384 q 599 350 613 371 q 513 214 556 282 q 172 -342 336 -60 q 163 -361 166 -352 q 151 -382 158 -376 q 125 -378 143 -388 q 203 -213 123 -349 q 381 78 283 -77 q 535 316 480 233 q 550 338 544 329 q 521 341 556 350 q 431 312 486 332 q 328 272 377 292 q 256 243 278 252 q 248 241 251 241 q 244 239 245 239 q 243 238 243 238 q 242 237 243 237 q 241 235 242 236 q 239 233 241 234 q 216 216 232 225 q 183 201 200 207 q 157 199 166 196 q 164 230 148 215 q 202 256 180 245 q 235 272 224 268 q 560 388 396 335 q 583 398 574 392 q 600 417 591 404 q 651 493 620 445 q 708 597 682 542 q 745 700 735 652 q 731 773 754 748 q 604 787 690 810 q 417 710 517 765 q 232 594 317 655 q 109 495 147 534 q 45 396 52 439 q 109 323 39 353 q 123 320 118 320 q 131 321 128 319 q 136 323 134 322 q 139 326 137 326 q 143 326 140 327 q 151 323 146 326 q 166 289 172 304 q 138 278 160 274 z "},"G":{"ha":1175,"x_min":0,"x_max":1312,"o":"m 64 -250 l 64 -250 q 16 -72 0 -176 q 106 149 32 32 q 293 381 180 267 q 536 592 406 496 q 793 749 666 688 q 1025 821 921 810 q 1249 772 1187 832 q 1289 613 1312 713 q 1174 407 1266 514 q 1159 399 1166 399 q 1149 407 1152 399 q 1156 425 1147 414 q 1259 605 1238 518 q 1226 743 1280 691 q 1028 783 1172 794 q 806 714 928 774 q 558 563 684 655 q 325 360 433 470 q 144 139 216 250 q 54 -68 71 28 q 93 -230 36 -165 q 265 -285 152 -289 q 507 -236 378 -281 q 741 -124 635 -190 q 890 7 846 -58 q 967 128 928 68 q 987 166 989 161 q 954 159 985 171 q 934 152 945 156 q 736 77 833 118 q 726 72 729 74 q 722 67 723 69 q 722 62 722 64 q 720 58 721 60 q 715 52 719 55 q 704 45 711 49 q 647 41 673 38 q 616 55 621 45 q 642 78 610 65 q 765 125 703 101 q 991 210 877 170 q 1008 216 1002 214 q 1021 220 1016 218 q 1031 228 1026 222 q 1046 243 1037 233 q 1070 267 1061 261 q 1084 269 1079 272 q 1093 260 1089 266 q 1100 251 1096 254 q 1113 250 1105 248 q 1220 279 1165 269 q 1267 290 1244 284 q 1294 286 1286 292 q 1299 273 1301 281 q 1289 261 1297 265 q 1273 261 1282 256 q 1154 225 1213 245 q 1108 210 1131 218 q 1091 201 1096 206 q 1080 185 1086 197 q 1040 115 1063 148 q 920 -26 987 38 q 875 -83 897 -49 q 833 -150 852 -117 q 817 -178 824 -165 q 772 -252 793 -214 q 769 -263 768 -260 q 773 -270 770 -267 q 776 -275 775 -272 q 777 -282 777 -277 q 771 -293 776 -286 q 748 -311 762 -307 q 722 -300 734 -315 q 732 -255 717 -287 q 766 -190 747 -222 q 795 -144 786 -158 q 802 -129 804 -131 q 792 -134 800 -127 q 631 -226 729 -180 q 424 -301 533 -273 q 219 -321 315 -330 q 64 -250 123 -313 z "},"H":{"ha":1258,"x_min":0,"x_max":1516,"o":"m 637 158 l 637 158 q 562 133 616 151 q 436 94 508 115 q 288 55 364 73 q 147 28 212 37 q 41 26 82 19 q 0 63 0 33 q 43 178 0 112 q 148 312 86 244 q 270 435 210 379 q 368 522 330 491 q 478 611 402 553 q 646 727 555 670 q 816 808 737 784 q 935 792 895 831 q 951 681 965 754 q 899 523 937 608 q 820 365 861 437 q 758 256 780 292 q 749 243 753 248 q 744 233 743 235 q 760 235 745 231 q 1211 370 984 307 q 1238 379 1230 375 q 1252 388 1247 382 q 1264 406 1257 394 q 1274 421 1267 412 q 1375 580 1324 500 q 1450 696 1413 637 q 1453 701 1452 699 q 1456 706 1455 704 q 1457 708 1457 707 q 1457 710 1457 709 q 1456 712 1456 711 q 1455 718 1455 714 q 1465 738 1454 728 q 1489 751 1476 747 q 1510 750 1502 755 q 1514 733 1516 743 q 1505 712 1511 722 q 1494 696 1498 701 q 1459 644 1477 670 q 1308 413 1383 528 q 1301 402 1304 406 q 1296 393 1295 395 q 1311 395 1297 391 q 1376 409 1337 403 q 1440 406 1415 416 q 1452 397 1447 403 q 1457 384 1457 392 q 1452 377 1455 378 q 1444 377 1448 376 q 1436 382 1440 379 q 1404 385 1426 387 q 1357 378 1381 383 q 1318 368 1333 372 q 1310 366 1313 367 q 1298 363 1303 364 q 1280 358 1286 360 q 1269 349 1274 355 q 1256 330 1264 343 q 1014 -93 1121 127 q 1010 -100 1012 -98 q 1008 -104 1009 -103 q 1008 -106 1008 -105 q 1008 -108 1008 -107 q 1011 -115 1009 -109 q 1005 -133 1013 -126 q 988 -138 998 -139 q 976 -126 979 -137 q 981 -75 968 -99 q 1216 330 1089 132 q 1218 340 1222 339 q 1204 337 1215 340 q 1198 335 1202 336 q 861 229 1026 284 q 758 196 810 213 q 744 192 750 193 q 721 184 728 187 q 709 175 713 180 q 696 156 704 169 q 686 140 692 149 q 631 50 673 118 q 539 -100 589 -18 q 454 -245 490 -182 q 416 -319 418 -308 q 416 -339 422 -331 q 399 -351 410 -348 q 383 -351 389 -355 q 402 -266 370 -336 q 488 -106 435 -195 q 587 55 541 -17 q 647 147 633 127 q 650 153 648 150 q 657 164 658 163 q 646 161 656 165 q 637 158 642 160 m 835 471 l 835 471 q 916 723 924 654 q 834 775 909 791 q 648 685 760 758 q 416 511 536 612 q 200 310 297 410 q 59 139 103 210 q 52 58 14 69 q 223 76 105 49 q 461 140 341 104 q 640 197 581 177 q 660 203 652 201 q 682 211 675 208 q 693 220 688 214 q 705 238 697 226 q 717 260 709 246 q 835 471 781 363 z "},"I":{"ha":770,"x_min":0,"x_max":960,"o":"m 322 47 l 322 47 q 80 123 160 66 q 20 272 0 180 q 177 484 40 363 q 317 591 227 527 q 515 716 408 656 q 724 806 623 776 q 895 810 825 836 q 954 738 948 787 q 938 630 960 688 q 887 520 917 572 q 836 440 857 469 q 743 307 806 395 q 580 76 668 202 q 426 -158 492 -51 q 349 -313 359 -266 q 352 -330 348 -322 q 354 -339 354 -335 q 350 -348 355 -344 q 333 -348 340 -354 q 323 -331 326 -342 q 323 -307 321 -319 q 407 -136 334 -256 q 572 120 479 -17 q 738 361 665 257 q 806 460 783 426 q 846 524 820 480 q 896 620 873 568 q 919 715 918 672 q 882 776 920 758 q 722 768 819 799 q 519 677 625 736 q 327 555 414 617 q 195 454 239 493 q 73 316 104 375 q 54 217 42 258 q 101 151 65 176 q 179 112 137 125 q 254 96 222 99 q 288 96 286 93 q 298 106 291 104 q 312 106 304 109 q 347 85 340 95 q 348 58 356 70 q 322 47 340 47 z "},"J":{"ha":1088,"x_min":0,"x_max":1160,"o":"m 500 295 l 500 295 q 455 318 475 302 q 427 360 435 334 q 480 493 414 422 q 648 628 545 564 q 851 734 751 692 q 1007 778 951 775 q 1127 734 1094 779 q 1156 621 1160 689 q 1131 484 1152 553 q 1086 367 1109 415 q 1091 353 1078 354 q 1126 355 1104 351 q 1136 356 1131 355 q 1152 350 1146 356 q 1156 336 1158 343 q 1141 327 1154 329 q 1115 323 1128 326 q 1080 319 1098 321 q 1061 314 1066 318 q 1052 300 1057 311 q 1047 292 1050 296 q 848 13 968 149 q 578 -221 728 -124 q 262 -341 429 -318 q 179 -347 227 -347 q 87 -333 130 -347 q 25 -282 44 -319 q 48 -150 0 -220 q 181 -15 97 -80 q 349 99 266 50 q 477 169 433 148 q 1007 340 731 289 q 1017 341 1013 340 q 1030 344 1025 342 q 1037 350 1034 346 q 1045 366 1040 355 q 1101 514 1079 437 q 1120 615 1116 563 q 1100 705 1124 668 q 1008 741 1076 741 q 891 710 966 739 q 731 634 816 680 q 576 535 646 588 q 474 434 506 483 q 474 351 443 385 q 482 347 479 348 q 487 347 485 346 q 490 349 489 348 q 495 352 493 351 q 503 351 498 353 q 514 341 507 349 q 529 306 532 322 q 500 295 526 289 m 1005 292 l 1005 292 q 1009 299 1007 296 q 1013 308 1015 307 q 998 307 1011 309 q 486 137 730 256 q 375 74 451 120 q 217 -33 298 28 q 86 -157 136 -94 q 56 -268 37 -219 q 107 -303 70 -295 q 184 -311 144 -312 q 249 -306 224 -309 q 550 -191 407 -283 q 810 30 694 -99 q 1005 292 927 159 z "},"K":{"ha":1193,"x_min":0,"x_max":1261,"o":"m 39 407 l 39 407 q 17 404 25 398 q 4 421 8 410 q 1 444 0 433 q 91 563 9 498 q 292 685 172 627 q 535 776 412 742 q 748 803 658 810 q 859 732 838 796 q 796 530 880 668 q 486 23 641 277 q 382 -148 434 -62 q 349 -204 357 -187 q 343 -220 340 -220 q 356 -210 346 -220 q 381 -182 367 -199 q 397 -165 389 -174 q 412 -149 404 -157 q 780 239 592 49 q 798 267 793 253 q 802 295 802 281 q 808 321 803 310 q 832 336 813 332 q 848 337 843 338 q 855 332 853 336 q 857 326 857 329 q 859 322 858 323 q 863 322 860 321 q 871 328 865 323 q 886 342 876 333 q 1240 628 1050 502 q 1256 632 1250 634 q 1261 624 1261 630 q 1253 612 1261 617 q 1069 470 1157 549 q 899 310 981 391 q 886 296 892 303 q 871 283 878 288 q 853 263 859 273 q 843 231 847 254 q 837 93 829 153 q 887 10 844 33 q 1024 20 930 -14 q 1042 20 1036 24 q 1046 9 1048 16 q 1035 -2 1045 2 q 843 2 900 -50 q 800 189 786 54 q 800 193 800 191 q 800 208 802 206 q 785 195 798 209 q 600 8 679 93 q 466 -139 522 -77 q 358 -255 396 -219 q 305 -274 319 -291 q 291 -244 291 -257 q 307 -203 291 -231 q 505 122 399 -52 q 765 549 644 351 q 824 681 813 626 q 795 759 835 735 q 652 767 756 783 q 441 707 570 754 q 197 594 312 659 q 45 463 83 529 q 44 450 41 455 q 50 441 46 445 q 57 432 55 437 q 55 422 59 428 q 39 407 52 416 z "},"L":{"ha":1453,"x_min":0,"x_max":1295,"o":"m 334 427 l 334 427 q 349 520 318 473 q 428 608 380 568 q 509 668 475 647 q 594 718 538 688 q 710 767 649 747 q 819 775 772 786 q 879 703 866 764 q 833 516 888 635 q 699 267 779 397 q 551 34 618 136 q 488 -64 512 -26 q 475 -92 471 -90 q 505 -83 478 -95 q 642 -27 556 -60 q 828 35 728 5 q 1023 78 928 65 q 1190 73 1119 91 q 1289 -7 1261 55 q 1290 -9 1290 -8 q 1294 -23 1293 -16 q 1288 -33 1295 -30 q 1275 -31 1280 -36 q 1269 -19 1271 -26 q 1169 49 1243 38 q 995 40 1095 60 q 792 -14 895 21 q 604 -83 688 -48 q 477 -138 519 -118 q 442 -155 454 -148 q 422 -173 430 -162 q 403 -202 414 -183 q 397 -212 400 -207 q 383 -236 390 -224 q 367 -262 375 -250 q 353 -273 360 -273 q 342 -267 345 -274 q 347 -246 340 -260 q 364 -217 355 -231 q 371 -205 368 -211 q 375 -199 372 -203 q 381 -189 378 -195 q 387 -178 385 -183 q 378 -183 383 -180 q 368 -188 372 -185 q 361 -191 363 -190 q 109 -321 232 -250 q 96 -331 100 -326 q 88 -343 92 -335 q 65 -363 79 -357 q 35 -373 51 -370 q 20 -373 28 -374 q 7 -366 12 -372 q 9 -338 0 -352 q 30 -318 18 -325 q 380 -138 200 -218 q 411 -123 401 -128 q 427 -111 421 -117 q 439 -91 432 -104 q 452 -70 444 -82 q 498 5 465 -46 q 614 190 547 81 q 741 412 680 299 q 832 614 802 525 q 837 737 862 703 q 737 747 808 768 q 585 676 667 726 q 442 571 504 627 q 369 475 380 515 q 367 465 368 469 q 368 461 367 462 q 369 459 368 460 q 371 457 370 458 q 373 454 372 456 q 371 427 378 438 q 352 415 363 416 q 334 427 340 414 z "},"M":{"ha":1392,"x_min":0,"x_max":1603,"o":"m 76 128 l 76 128 q 21 188 37 148 q 46 335 0 251 q 178 506 93 419 q 361 663 264 593 q 540 767 458 733 q 660 781 621 802 q 683 718 690 760 q 653 632 675 675 q 618 568 631 589 l 370 163 q 343 119 355 138 q 369 136 275 12 q 380 149 374 142 q 487 283 412 192 q 650 474 561 375 q 816 639 739 574 q 930 694 893 705 q 959 630 962 680 q 936 511 957 579 q 892 378 916 444 q 858 276 870 317 q 857 228 846 234 q 968 284 883 222 q 1156 432 1053 345 q 1342 591 1259 519 q 1443 676 1417 655 q 1449 680 1445 678 q 1490 710 1463 692 q 1542 740 1516 728 q 1582 746 1568 752 q 1595 699 1603 734 q 1567 625 1586 664 q 1535 568 1547 587 q 1533 563 1533 565 q 1358 294 1477 469 q 1206 65 1282 181 q 1078 -143 1131 -52 q 1021 -275 1026 -235 q 1027 -293 1019 -292 q 1048 -289 1036 -294 q 1051 -288 1049 -288 q 1066 -290 1061 -285 q 1070 -301 1072 -294 q 1056 -312 1069 -309 q 1027 -318 1043 -317 q 999 -309 1010 -319 q 1015 -198 979 -283 q 1120 2 1051 -113 q 1267 235 1190 118 q 1404 439 1344 351 q 1478 549 1455 513 q 1479 551 1478 549 q 1499 582 1485 559 q 1528 632 1513 605 q 1553 681 1544 660 q 1557 705 1562 702 q 1535 697 1552 707 q 1498 673 1518 688 q 1462 646 1478 659 q 1442 629 1447 633 q 1380 574 1422 612 q 1246 458 1324 525 q 1087 330 1168 392 q 941 230 1006 267 q 845 202 876 193 q 821 254 819 214 q 840 349 823 294 q 880 463 858 405 q 924 593 909 537 q 917 660 939 648 q 836 615 893 667 q 704 479 778 563 q 557 307 629 396 q 430 151 484 218 q 367 73 388 98 q 341 44 360 64 q 303 8 323 24 q 273 -3 283 -7 q 270 44 258 9 q 302 119 281 80 q 334 177 322 157 q 338 182 336 180 l 586 587 q 613 635 593 598 q 646 710 633 673 q 644 760 659 748 q 543 739 616 774 q 380 635 470 703 q 209 486 290 568 q 84 328 128 405 q 58 199 39 252 q 60 193 58 197 q 65 185 62 189 q 70 182 67 182 q 81 184 75 185 q 90 178 86 182 q 105 135 112 153 q 76 128 98 117 z "},"N":{"ha":1247,"x_min":0,"x_max":1386,"o":"m 71 173 l 71 173 q 3 281 0 214 q 60 427 5 348 q 202 582 115 506 q 386 718 289 659 q 571 804 484 777 q 716 812 659 831 q 762 731 767 791 q 720 593 757 671 q 635 440 682 515 q 552 315 587 366 q 524 273 533 288 q 476 199 500 236 q 231 -207 347 -1 q 219 -229 225 -218 q 190 -284 200 -262 q 191 -303 180 -305 q 243 -264 201 -301 q 320 -189 282 -227 q 407 -100 346 -164 q 586 87 480 -22 q 811 311 692 196 q 1041 521 930 426 q 1237 665 1153 616 q 1360 692 1322 714 q 1372 679 1367 687 q 1363 590 1386 652 q 1295 444 1341 528 q 1196 267 1250 360 q 1067 33 1124 144 q 999 -148 1010 -79 q 1055 -214 988 -218 q 1059 -214 1057 -214 q 1073 -214 1066 -213 q 1081 -222 1080 -215 q 1075 -234 1082 -231 q 1061 -237 1069 -237 q 972 -192 984 -243 q 991 -55 960 -142 q 1079 135 1023 31 q 1194 340 1135 238 q 1308 545 1263 458 q 1340 660 1352 633 q 1244 631 1322 684 q 1053 477 1166 578 q 817 257 940 376 q 585 28 693 138 q 407 -152 476 -81 q 340 -220 355 -205 q 328 -233 336 -224 q 269 -290 306 -256 q 198 -344 233 -325 q 146 -342 163 -363 q 172 -244 136 -320 q 266 -70 208 -169 q 381 120 324 29 q 473 262 439 210 q 492 292 486 283 q 520 335 502 307 q 596 451 553 382 q 676 589 640 519 q 724 711 713 659 q 703 777 736 763 q 535 755 638 798 q 324 633 432 712 q 136 469 216 555 q 35 317 56 382 q 37 256 26 281 q 67 217 48 231 q 102 197 86 202 q 121 196 119 192 q 135 207 127 206 q 150 201 142 207 q 163 190 158 196 q 151 152 184 163 q 126 153 142 150 q 95 162 111 157 q 71 173 79 168 z "},"O":{"ha":1154,"x_min":0,"x_max":1199,"o":"m 49 -141 l 49 -141 q 24 22 0 -77 q 127 237 49 122 q 316 464 205 353 q 553 660 428 574 q 797 783 678 745 q 1009 793 916 822 q 1149 648 1103 765 q 1165 383 1199 515 q 1041 130 1132 251 q 827 -90 950 9 q 572 -254 703 -189 q 328 -340 441 -319 q 143 -328 214 -361 q 68 -195 72 -294 q 68 -172 68 -179 q 68 -165 68 -168 q 66 -161 68 -163 q 62 -156 65 -159 q 49 -141 58 -152 m 1115 635 l 1115 635 q 964 764 1067 751 q 731 717 861 777 q 470 550 600 656 q 236 321 339 444 q 84 85 132 197 q 69 -101 35 -28 q 82 -114 77 -117 q 93 -98 87 -111 q 99 -85 96 -92 q 231 83 143 -9 q 396 215 318 175 q 444 214 431 229 q 435 172 458 199 q 420 163 430 167 q 403 165 410 159 q 399 170 400 168 q 396 172 397 172 q 393 171 395 172 q 388 168 391 170 q 383 165 386 166 q 243 43 315 120 q 130 -104 170 -33 q 125 -115 127 -110 q 115 -141 113 -132 q 142 -157 116 -150 q 149 -159 145 -158 q 240 -174 193 -174 q 257 -177 252 -172 q 258 -188 262 -182 q 243 -195 255 -193 q 132 -186 182 -199 q 122 -184 126 -185 q 107 -181 111 -179 q 105 -201 103 -184 q 207 -311 117 -295 q 430 -278 297 -326 q 704 -135 564 -230 q 957 86 844 -40 q 1117 354 1069 213 q 1115 635 1166 495 z "},"P":{"ha":1048,"x_min":0,"x_max":1299,"o":"m 357 -31 l 357 -31 q 645 415 494 197 q 651 426 650 422 q 653 431 653 429 q 651 434 652 433 q 649 438 650 435 q 650 448 648 441 q 715 535 667 504 q 732 537 724 541 q 745 524 740 532 q 739 496 749 516 q 716 453 730 475 q 693 418 702 431 q 688 410 690 413 q 609 293 648 351 q 401 -19 503 139 q 393 -31 397 -26 q 389 -40 387 -39 q 402 -35 390 -41 q 408 -33 405 -34 q 665 86 528 19 q 929 232 802 153 q 1145 397 1056 311 q 1229 508 1196 448 q 1263 621 1261 567 q 1224 712 1265 675 q 1085 753 1183 748 q 766 700 958 755 q 397 556 574 644 q 136 371 219 467 q 110 315 112 342 q 142 266 107 288 q 155 264 151 261 q 161 271 159 267 q 165 277 163 275 q 170 279 167 279 q 179 275 174 279 q 196 247 193 262 q 190 220 198 231 q 164 215 182 210 q 77 287 92 241 q 111 395 62 334 q 379 587 198 495 q 757 735 561 678 q 1086 790 954 793 q 1247 742 1198 785 q 1298 636 1297 700 q 1263 504 1299 573 q 1169 375 1228 435 q 941 198 1074 281 q 664 46 808 115 q 392 -72 520 -22 q 368 -82 376 -78 q 355 -94 360 -87 q 342 -113 349 -100 q 337 -121 340 -117 q 309 -167 323 -144 q 214 -332 258 -248 q 193 -347 203 -351 q 193 -322 184 -343 q 304 -121 245 -220 q 311 -105 311 -108 q 300 -107 311 -102 q 22 -191 163 -157 q 5 -190 10 -193 q 3 -180 0 -186 q 18 -171 6 -174 q 161 -128 90 -153 q 301 -76 233 -103 q 315 -71 309 -73 q 332 -64 326 -66 q 342 -55 338 -61 q 353 -38 346 -50 q 357 -31 355 -35 z "},"Q":{"ha":1005,"x_min":0,"x_max":1156,"o":"m 166 -58 l 166 -58 q 158 238 117 97 q 298 495 198 379 q 526 690 397 611 q 782 801 654 770 q 1004 802 909 831 q 1133 671 1100 772 q 1110 482 1156 587 q 980 269 1065 377 q 800 67 895 161 q 625 -88 704 -27 q 611 -100 618 -94 q 588 -122 585 -119 q 626 -119 590 -125 q 656 -115 639 -118 q 765 -106 707 -109 q 875 -110 823 -104 q 960 -134 926 -115 q 993 -189 993 -153 q 987 -207 993 -203 q 975 -206 981 -210 q 970 -191 970 -201 q 940 -158 970 -169 q 864 -145 911 -147 q 762 -146 817 -142 q 654 -155 707 -149 q 562 -167 602 -161 q 484 -186 519 -174 q 414 -215 449 -199 q 352 -241 385 -228 q 282 -266 337 -247 q 161 -301 227 -284 q 47 -319 95 -318 q 0 -290 0 -319 q 45 -257 3 -275 q 142 -222 86 -239 q 245 -193 198 -205 q 307 -178 292 -181 q 371 -165 336 -172 q 453 -149 412 -158 q 523 -126 493 -140 q 660 -14 571 -94 q 846 170 749 65 q 1016 385 943 275 q 1103 588 1088 495 q 1042 734 1118 680 q 861 772 967 783 q 640 705 755 762 q 422 559 524 649 q 252 356 319 469 q 175 122 184 244 q 235 -119 165 1 q 240 -124 237 -124 q 245 -123 243 -124 q 250 -121 247 -121 q 255 -122 252 -121 q 263 -129 258 -123 q 278 -162 283 -148 q 259 -182 274 -177 q 231 -176 244 -186 q 193 -120 210 -155 q 166 -58 176 -85 m 222 -237 l 222 -237 q 252 -237 233 -239 q 289 -230 270 -235 q 323 -219 309 -224 q 341 -210 337 -213 q 332 -207 345 -206 q 286 -216 320 -208 q 71 -275 177 -241 q 57 -279 60 -278 q 57 -281 54 -281 q 66 -281 60 -281 q 79 -279 73 -280 q 85 -279 82 -279 q 187 -258 137 -273 q 191 -256 190 -257 q 193 -255 193 -256 q 193 -253 193 -254 q 195 -245 193 -251 q 206 -236 198 -238 q 222 -237 214 -235 z "},"R":{"ha":947,"x_min":0,"x_max":1177,"o":"m 188 207 l 188 207 q 119 191 164 188 q 37 217 73 193 q 3 286 0 241 q 120 452 15 368 q 376 609 226 536 q 671 727 526 681 q 909 781 816 774 q 1065 766 1000 788 q 1154 686 1131 743 q 1143 533 1177 629 q 1002 316 1099 417 q 790 138 906 215 q 567 18 673 62 q 562 17 564 18 q 550 10 551 13 q 560 -1 549 7 q 645 -64 596 -26 q 781 -166 708 -114 q 925 -255 854 -218 q 1050 -294 995 -292 q 1065 -299 1061 -294 q 1065 -310 1069 -304 q 1050 -315 1062 -315 q 909 -275 987 -313 q 751 -183 831 -237 q 604 -79 672 -130 q 527 -24 561 -47 q 515 -15 519 -18 q 506 -8 509 -10 q 498 -7 503 -7 q 486 -9 494 -7 q 475 -12 481 -11 q 399 -4 417 -23 q 391 39 381 15 q 425 66 400 63 q 457 60 440 66 q 486 46 473 54 q 493 42 490 43 q 503 37 500 38 q 510 36 507 35 q 519 39 513 37 q 531 44 524 41 q 799 190 665 95 q 1023 398 933 286 q 1119 570 1094 488 q 1098 703 1143 652 q 911 745 1052 753 q 685 692 825 737 q 397 578 544 647 q 147 431 250 509 q 31 280 43 353 q 45 251 31 263 q 81 232 60 239 q 118 227 102 226 q 136 238 134 229 q 144 248 138 245 q 157 250 150 251 q 179 242 168 248 q 194 228 190 237 q 188 207 198 219 m 441 20 l 441 20 q 447 20 444 20 q 452 20 450 20 q 454 21 454 20 q 449 24 453 22 q 445 26 448 24 q 434 31 440 28 q 425 33 429 33 q 422 26 421 33 q 427 22 424 23 q 435 20 431 20 q 441 20 439 20 m 387 262 l 387 262 q 398 281 393 271 q 469 404 435 340 q 472 413 472 410 q 467 418 472 416 q 454 430 454 422 q 460 448 454 437 q 485 479 467 460 q 523 511 503 499 q 557 511 543 523 q 562 497 562 506 q 559 482 562 488 q 481 350 522 415 q 465 323 473 337 q 414 243 450 301 q 280 31 357 154 q 143 -194 203 -92 q 77 -324 83 -296 q 73 -337 76 -331 q 60 -342 69 -343 q 53 -334 54 -341 q 54 -321 52 -328 q 54 -317 54 -319 q 109 -196 61 -283 q 220 -7 157 -109 q 332 174 282 94 q 387 262 370 234 z "},"S":{"ha":983,"x_min":0,"x_max":1188,"o":"m 18 147 l 18 147 q 82 300 0 213 q 305 475 163 387 q 606 632 446 563 q 905 731 766 701 q 1120 732 1044 761 q 1180 643 1188 700 q 1113 524 1172 585 q 970 420 1054 463 q 803 376 886 378 q 776 391 778 376 q 785 423 774 406 q 812 448 797 440 q 838 442 827 455 q 839 439 838 441 q 843 432 842 435 q 842 424 844 429 q 841 422 842 422 q 839 418 839 419 q 843 416 839 416 q 960 459 895 424 q 1076 541 1025 494 q 1141 631 1128 588 q 1105 697 1155 674 q 903 694 1034 724 q 620 595 772 663 q 333 445 468 528 q 119 283 199 361 q 52 155 39 205 q 137 124 65 126 q 310 133 208 121 q 512 161 411 145 q 729 186 656 183 q 772 185 745 186 q 822 175 799 183 q 850 146 846 166 q 812 84 853 121 q 710 8 772 47 q 588 -66 648 -32 q 490 -120 527 -100 q 467 -132 475 -128 q 410 -163 443 -145 q 231 -262 326 -206 q 91 -363 135 -317 q 75 -373 82 -373 q 67 -365 68 -372 q 74 -347 66 -357 q 219 -238 121 -298 q 399 -134 318 -178 q 441 -111 423 -121 q 462 -99 447 -107 q 594 -23 509 -73 q 748 74 679 26 q 819 142 818 121 q 793 153 816 151 q 745 155 770 156 q 713 153 720 155 q 548 130 653 149 q 326 97 441 111 q 125 91 211 83 q 18 147 39 98 z "},"T":{"ha":875,"x_min":0,"x_max":1638,"o":"m 966 731 l 966 731 q 964 729 963 729 q 969 729 966 728 q 976 730 972 729 q 980 730 979 730 q 985 732 983 731 q 989 733 988 732 q 990 736 991 734 q 986 738 989 738 q 979 736 983 737 q 971 733 975 734 q 966 731 968 732 m 935 736 q 988 765 962 753 q 1032 769 1015 778 q 1042 761 1040 765 q 1044 753 1044 757 q 1044 747 1044 749 q 1043 742 1042 744 q 1048 740 1044 741 q 1063 741 1053 740 q 1404 764 1254 767 q 1626 726 1554 761 q 1638 714 1637 720 q 1633 704 1638 707 q 1619 705 1628 701 q 1406 739 1551 738 q 1074 711 1260 739 q 1038 699 1048 707 q 1019 673 1028 691 q 1011 660 1016 667 q 812 363 957 572 q 618 77 716 223 q 451 -182 519 -70 q 382 -325 382 -295 q 376 -338 382 -334 q 363 -339 370 -342 q 357 -323 357 -336 q 428 -165 357 -286 q 600 108 499 -45 q 797 402 701 260 q 976 674 924 589 q 977 686 982 684 q 961 686 971 688 q 943 682 951 684 q 940 682 941 682 q 912 675 922 678 q 897 667 903 672 q 879 653 890 663 q 871 646 875 650 q 720 513 793 581 q 680 477 700 495 q 673 470 675 473 q 672 467 671 468 q 673 464 672 465 q 677 458 675 462 q 669 444 678 452 q 647 434 660 435 q 623 446 634 433 q 628 466 618 453 q 650 493 637 479 q 672 515 663 507 q 677 520 676 518 q 737 579 709 553 q 801 635 766 606 q 790 656 836 666 q 543 585 662 625 q 389 528 484 567 q 205 431 295 488 q 72 304 116 374 q 68 153 27 233 q 89 136 77 139 q 110 134 100 133 q 123 131 119 134 q 121 116 127 128 q 68 99 102 82 q 17 169 34 116 q 33 297 0 222 q 182 457 66 373 q 531 621 298 542 q 865 708 692 673 q 870 709 868 709 q 895 714 886 712 q 912 721 903 717 q 935 736 920 726 l 935 736 l 935 736 z "},"U":{"ha":1602,"x_min":0,"x_max":1731,"o":"m 52 130 l 52 130 q 28 241 0 176 q 139 378 56 305 q 331 523 221 451 q 551 655 441 594 q 747 756 662 716 q 864 808 831 797 q 1008 822 976 845 q 1016 731 1041 799 q 929 567 991 664 q 790 359 867 470 q 659 164 722 261 q 551 -19 595 67 q 497 -169 507 -105 q 526 -263 487 -233 q 657 -265 571 -293 q 849 -174 743 -237 q 1062 -32 956 -110 q 1255 115 1168 45 q 1387 224 1341 185 q 1471 303 1425 258 q 1542 388 1517 349 q 1549 399 1545 393 q 1594 473 1566 428 q 1651 557 1623 518 q 1697 606 1680 596 q 1722 576 1731 608 q 1681 499 1712 544 q 1619 417 1650 454 q 1579 369 1588 379 q 1578 368 1578 369 q 1463 201 1528 309 q 1337 -17 1399 94 q 1238 -186 1280 -118 q 1221 -199 1230 -199 q 1210 -192 1213 -199 q 1213 -175 1207 -185 q 1299 -20 1260 -92 q 1404 169 1345 68 q 1412 185 1410 178 q 1411 193 1415 193 q 1394 181 1407 193 q 1255 65 1343 136 q 1059 -83 1166 -6 q 844 -220 951 -159 q 647 -305 736 -281 q 505 -296 557 -329 q 459 -176 450 -255 q 520 5 468 -97 q 645 219 572 108 q 793 434 719 330 q 904 595 855 522 q 976 719 953 669 q 983 785 998 768 q 882 770 964 800 q 682 682 800 741 q 443 548 565 623 q 223 397 321 473 q 81 257 125 321 q 76 158 37 194 q 82 153 79 155 q 90 147 86 149 q 98 151 94 146 q 121 158 111 165 q 137 134 132 150 q 136 104 142 117 q 110 95 130 92 q 52 130 90 98 z "},"V":{"ha":983,"x_min":0,"x_max":1610,"o":"m 59 433 l 59 433 q 48 403 60 411 q 21 401 35 395 q 3 429 7 407 q 20 488 0 450 q 118 584 46 534 q 284 677 189 633 q 473 749 378 721 q 638 778 567 777 q 734 746 709 780 q 715 632 759 712 q 264 -249 472 200 q 254 -269 259 -261 q 249 -285 246 -285 q 273 -268 252 -286 q 694 93 487 -96 q 884 261 789 178 q 909 283 894 270 q 1120 466 983 349 q 1387 682 1257 583 q 1570 795 1517 781 q 1609 770 1601 801 q 1609 757 1610 763 q 1600 749 1607 751 q 1589 750 1592 748 q 1584 755 1586 752 q 1581 760 1584 758 q 1574 761 1579 762 q 1558 756 1569 760 q 1383 643 1488 724 q 1169 467 1279 563 q 973 293 1059 371 q 897 224 929 252 q 751 92 825 160 q 524 -111 639 -10 q 292 -296 409 -211 q 243 -323 267 -314 q 205 -329 218 -333 q 200 -303 191 -326 q 228 -241 213 -272 q 236 -223 232 -232 q 681 639 441 217 q 679 737 724 718 q 538 733 633 756 q 334 661 442 709 q 145 558 227 613 q 46 460 63 503 q 44 451 44 454 q 46 447 44 448 q 50 445 47 446 q 55 442 52 444 q 59 433 58 439 z "},"W":{"ha":2213,"x_min":0,"x_max":2453,"o":"m 31 138 l 31 138 q 26 207 0 163 q 106 299 52 251 q 213 387 160 348 q 290 441 267 426 q 294 445 292 444 q 401 516 329 469 q 563 614 473 563 q 740 703 653 666 q 892 746 827 741 q 979 707 957 752 q 952 551 997 657 q 831 314 907 444 q 677 62 754 184 q 578 -99 620 -29 q 525 -202 536 -169 q 546 -219 513 -236 q 693 -120 616 -180 q 833 -7 771 -60 q 975 114 899 47 q 1229 327 1097 222 q 1479 484 1360 431 q 1607 503 1575 524 q 1634 424 1640 481 q 1612 302 1629 367 q 1605 274 1609 288 q 1599 247 1603 262 q 1565 99 1585 190 q 1531 -88 1546 8 q 1517 -256 1516 -184 q 1546 -348 1518 -328 q 1627 -326 1577 -363 q 1724 -239 1677 -290 q 1790 -163 1770 -189 q 1794 -159 1792 -161 q 2121 288 1965 50 q 2417 758 2276 526 q 2434 768 2424 769 q 2448 759 2443 767 q 2447 738 2453 750 q 2141 258 2303 501 q 1802 -197 1980 16 q 1753 -253 1786 -216 q 1678 -328 1720 -290 q 1595 -385 1636 -365 q 1525 -387 1554 -404 q 1482 -283 1487 -361 q 1491 -103 1477 -205 q 1526 94 1505 -1 q 1561 248 1546 189 q 1569 282 1566 269 q 1578 319 1573 299 q 1597 406 1592 364 q 1581 464 1603 448 q 1493 450 1560 481 q 1255 300 1381 399 q 1009 96 1129 201 q 846 -43 921 18 q 837 -50 842 -45 q 762 -110 812 -71 q 654 -188 711 -149 q 552 -247 597 -227 q 490 -252 506 -268 q 502 -176 476 -234 q 578 -32 528 -117 q 688 151 628 53 q 825 375 760 264 q 926 572 890 486 q 948 695 962 657 q 873 713 932 726 q 730 660 813 700 q 561 569 647 619 q 408 474 475 518 q 311 410 340 430 q 252 369 297 401 q 154 295 206 336 q 68 217 102 254 q 45 163 35 180 q 95 162 56 152 q 172 188 133 172 q 226 213 211 204 q 231 219 231 216 q 231 225 232 222 q 230 230 230 228 q 232 235 230 233 q 241 241 235 237 q 274 242 261 248 q 289 225 287 237 q 278 203 291 214 q 203 158 248 182 q 112 124 159 134 q 31 138 66 115 z "},"X":{"ha":1453,"x_min":0,"x_max":1547,"o":"m 647 597 l 647 597 q 633 601 639 597 q 626 614 627 606 q 631 671 621 654 q 655 684 642 688 q 675 663 669 681 q 742 456 700 561 q 828 256 783 351 q 842 237 836 238 q 861 245 848 235 q 869 250 865 248 q 1142 433 1006 337 q 1400 634 1277 528 q 1407 641 1406 638 q 1407 647 1408 644 q 1402 651 1405 649 q 1397 657 1399 654 q 1398 665 1396 661 q 1408 678 1400 670 q 1430 701 1418 688 q 1465 734 1447 718 q 1501 758 1483 751 q 1544 749 1541 770 q 1513 690 1547 727 q 1213 434 1383 555 q 882 215 1042 313 q 873 209 877 212 q 860 200 863 203 q 858 194 857 197 q 863 182 859 190 q 872 165 867 176 q 947 31 900 111 q 1055 -128 994 -49 q 1188 -263 1117 -208 q 1336 -327 1259 -319 q 1488 -270 1412 -334 q 1503 -263 1497 -262 q 1510 -272 1510 -264 q 1500 -288 1510 -279 q 1334 -356 1416 -359 q 1176 -297 1252 -352 q 1035 -160 1100 -242 q 918 7 969 -78 q 836 155 867 92 q 829 168 831 163 q 823 177 825 176 q 813 172 821 178 q 800 163 808 168 q 418 -61 613 43 q 24 -263 223 -165 q 7 -263 14 -268 q 1 -251 0 -259 q 14 -236 2 -243 q 775 191 404 -40 q 782 195 779 193 q 801 210 798 203 q 798 230 805 216 q 658 577 715 398 q 656 582 657 579 q 653 593 656 587 q 647 597 651 598 z "},"Y":{"ha":965,"x_min":0,"x_max":1196,"o":"m 66 547 l 66 547 q 76 509 85 521 q 47 501 67 498 q 13 523 26 504 q 11 576 0 541 q 106 685 31 625 q 268 782 182 745 q 408 802 355 819 q 440 745 441 787 q 421 645 440 703 q 376 526 401 587 q 324 381 342 446 q 332 292 306 317 q 419 308 353 277 q 572 396 484 338 q 750 519 660 454 q 913 637 841 584 q 1027 720 997 700 q 1029 721 1028 720 q 1075 749 1044 730 q 1138 777 1107 767 q 1183 770 1169 786 q 1168 694 1196 749 q 1099 577 1140 638 q 1032 479 1059 517 q 1018 459 1023 466 q 1010 448 1014 454 q 763 74 883 264 q 551 -322 642 -117 q 538 -334 546 -332 q 525 -330 530 -336 q 526 -309 520 -323 q 738 96 618 -100 q 987 480 858 293 q 1000 498 991 485 q 1060 585 1023 530 q 1127 688 1098 640 q 1155 744 1157 735 q 1120 737 1147 751 q 1064 705 1093 724 q 1025 677 1036 686 q 1022 675 1023 676 q 943 615 996 657 q 783 492 875 562 q 596 361 691 423 q 424 268 500 299 q 310 260 347 237 q 283 335 280 283 q 309 451 287 386 q 358 582 332 517 q 404 709 389 656 q 399 772 420 762 q 279 749 357 786 q 132 658 201 713 q 45 564 62 604 q 44 556 44 558 q 45 554 44 554 q 49 553 47 553 q 57 553 52 554 q 66 547 61 552 z "},"Z":{"ha":1225,"x_min":0,"x_max":1301,"o":"m 24 -217 q 6 -200 0 -214 q 41 -174 13 -185 q 474 28 247 -96 q 886 274 701 153 q 890 276 888 275 q 901 286 901 283 q 882 285 901 288 q 873 284 878 285 q 735 267 808 277 q 601 239 663 256 q 595 235 597 238 q 593 230 594 233 q 589 222 592 225 q 576 219 586 219 q 563 222 570 219 q 548 229 555 224 q 540 239 541 234 q 548 255 539 248 q 570 267 557 262 q 589 275 582 272 l 591 275 q 749 306 665 295 q 912 322 833 316 q 916 323 914 322 q 934 324 926 323 q 957 327 948 325 q 974 334 965 328 q 1000 351 983 339 q 1078 409 1026 369 q 1180 499 1130 449 q 1251 598 1230 550 q 1234 680 1272 646 q 1060 739 1170 730 q 823 727 949 747 q 582 669 696 707 q 395 590 468 632 q 348 559 381 582 q 282 506 314 536 q 239 449 250 477 q 259 404 229 421 q 284 401 276 398 q 297 409 292 404 q 308 416 302 414 q 326 413 314 418 q 352 386 349 402 q 330 363 356 369 q 256 370 294 358 q 207 422 217 382 q 233 498 203 458 q 305 571 263 538 q 377 622 347 605 q 574 706 455 667 q 823 763 692 744 q 1069 771 954 783 q 1253 704 1183 759 q 1290 610 1301 662 q 1234 505 1278 557 q 1138 410 1190 453 q 1054 345 1086 368 q 1045 338 1048 340 q 1037 331 1036 332 q 1049 330 1038 330 l 1060 330 q 1117 328 1084 331 q 1173 315 1151 324 q 1187 301 1187 308 q 1180 291 1187 294 q 1162 292 1173 288 q 1097 301 1139 301 q 1029 298 1054 300 q 1016 298 1022 298 q 995 296 1002 298 q 980 291 987 295 q 957 277 972 286 q 568 43 769 152 q 163 -162 367 -66 q 145 -176 138 -174 q 178 -176 151 -178 q 190 -176 184 -176 q 422 -173 274 -173 q 736 -184 570 -174 q 1037 -223 901 -195 q 1231 -304 1172 -251 q 1238 -320 1239 -313 q 1230 -328 1237 -327 q 1214 -321 1223 -330 q 997 -242 1154 -268 q 646 -211 840 -217 q 282 -208 452 -204 q 24 -217 111 -212 z "},"[":{"ha":605,"x_min":0,"x_max":605,"o":"m 429 520 l 429 520 q 339 419 399 510 q 213 210 279 328 q 99 1 147 92 q 55 -79 71 -51 q 54 -155 26 -133 q 138 -181 81 -178 q 256 -180 195 -184 q 269 -183 266 -180 q 271 -192 273 -187 q 266 -200 269 -197 q 258 -204 262 -203 q 87 -197 142 -210 q 16 -161 31 -184 q 6 -117 0 -139 q 19 -83 12 -95 q 76 28 28 -66 q 192 240 125 122 q 321 449 258 358 q 420 550 383 539 q 534 557 486 561 q 589 551 581 554 q 589 551 589 551 q 604 536 602 548 q 597 516 605 525 q 578 510 590 507 q 576 511 578 509 q 558 518 573 513 q 513 526 544 524 q 429 520 481 528 z "},"\\":{"ha":104,"x_min":0,"x_max":104,"o":"m 78 -258 l 78 -258 q 71 -251 71 -256 q 71 -238 70 -245 q 72 -31 85 -171 q 37 270 58 109 q 0 610 10 465 q 21 636 2 643 q 53 599 39 629 q 63 537 64 559 q 56 499 62 515 q 52 447 49 479 q 78 193 64 334 q 98 -68 92 52 q 94 -239 104 -189 q 89 -253 92 -246 q 78 -258 85 -260 z "},"]":{"ha":541,"x_min":0,"x_max":541,"o":"m 175 -165 l 175 -165 q 257 -62 205 -155 q 364 150 309 31 q 458 360 419 269 q 492 434 480 408 q 486 511 515 488 q 400 536 457 533 q 283 535 342 538 q 268 538 272 535 q 266 547 264 542 q 270 555 267 551 q 278 559 274 559 q 449 552 392 566 q 524 517 506 539 q 538 472 541 494 q 528 439 534 450 q 481 327 521 421 q 386 115 441 233 q 276 -93 330 -3 q 186 -195 222 -184 q 74 -202 121 -205 q 19 -197 26 -199 q 18 -196 18 -196 q 2 -181 4 -193 q 6 -160 0 -170 q 24 -155 13 -151 q 26 -155 25 -155 q 66 -168 32 -161 q 175 -165 100 -175 z "},"^":{"ha":311,"x_min":0,"x_max":311,"o":"m 236 530 l 236 530 q 148 468 198 517 q 64 382 97 420 q 52 368 56 373 q 46 360 47 363 q 45 357 44 358 q 47 356 45 356 q 53 353 50 355 q 58 343 56 351 q 56 330 60 336 q 45 323 52 324 q 40 322 45 322 q 27 323 35 322 q 14 326 20 323 q 4 335 7 329 q 2 352 0 341 q 13 378 3 362 q 35 403 23 389 q 128 500 76 450 q 222 565 180 551 q 278 531 264 577 q 297 438 290 484 q 307 362 304 393 q 310 331 310 331 q 306 316 311 320 q 295 314 301 311 q 287 329 289 317 q 286 336 287 332 q 279 385 284 353 q 268 451 275 417 q 253 508 261 485 q 236 530 245 531 z "},"_":{"ha":522,"x_min":0,"x_max":522,"o":"m 60 -223 l 60 -223 q 24 -226 41 -231 q 3 -209 6 -221 q 25 -181 0 -196 q 102 -173 38 -176 q 248 -171 165 -171 q 399 -172 331 -171 q 490 -173 468 -172 q 516 -180 509 -173 q 516 -196 522 -188 q 493 -205 511 -203 q 433 -204 478 -205 q 249 -203 353 -202 q 87 -214 144 -203 q 77 -216 82 -215 q 60 -223 62 -218 z "},"`":{"ha":123,"x_min":0,"x_max":123,"o":"m 74 464 l 74 464 q 46 483 64 471 q 20 500 32 492 q 4 516 8 509 q 10 526 0 523 q 52 528 20 530 q 70 512 57 526 q 95 479 82 498 q 116 445 109 460 q 119 427 123 430 q 104 429 111 422 q 89 446 97 435 q 74 464 82 456 z "},"a":{"ha":357,"x_min":-42,"x_max":382,"o":"m 357 92 q 378 94 375 102 q 366 74 382 85 q 299 44 340 58 q 227 35 259 29 q 194 86 195 41 l 194 90 q 193 99 195 99 q 181 94 191 100 q 27 8 76 25 q -31 7 -22 -9 q -4 74 -42 28 q 94 161 34 120 q 209 211 154 203 q 286 168 264 220 q 284 155 288 161 q 273 148 280 150 q 258 151 267 146 q 246 162 250 155 q 247 165 246 163 q 248 168 248 166 q 250 170 249 169 q 250 173 250 172 q 191 180 233 196 q 104 129 150 163 q 26 63 58 94 q -4 26 -6 33 q 50 48 -1 19 q 216 157 100 77 q 229 160 222 161 q 239 153 235 159 q 240 136 244 144 q 234 68 214 81 q 292 66 254 55 q 357 92 330 77 z "},"b":{"ha":370,"x_min":-168,"x_max":496,"o":"m 117 168 l 117 168 q 120 171 118 170 q 180 212 144 190 q 253 242 216 235 q 317 226 290 250 q 316 133 353 188 q 200 25 279 78 q 26 -59 120 -27 q -146 -85 -68 -92 q -163 -78 -159 -83 q -163 -69 -168 -73 q -146 -66 -159 -65 q 4 -43 -77 -72 q 155 33 85 -14 q 267 124 226 79 q 297 198 307 170 q 240 206 283 224 q 146 148 197 188 q 52 70 94 109 q -4 18 10 31 q -5 16 -5 17 q -6 16 -5 16 q -6 16 -6 16 q -19 12 -12 11 q -32 20 -26 14 q -35 32 -35 26 q -29 43 -35 39 l -24 49 q 6 91 -19 54 q 88 222 31 128 q 248 493 145 317 q 436 777 391 739 q 461 789 449 789 q 481 785 473 789 q 494 773 492 781 q 494 749 496 764 q 444 623 486 705 q 310 429 397 541 q 151 239 222 316 q 127 201 135 214 q 117 182 122 192 q 114 178 115 180 q 105 163 106 165 q 117 168 105 160 m 294 499 l 294 499 q 257 435 273 463 q 218 365 217 368 q 288 456 220 362 q 412 641 368 564 q 451 720 444 702 q 446 724 457 737 q 412 679 434 711 q 365 610 390 648 q 320 542 340 573 q 294 499 300 511 z "},"c":{"ha":224,"x_min":-37,"x_max":248,"o":"m 98 161 q 40 84 69 132 q 7 9 12 35 q 38 -1 7 -9 q 112 27 69 7 q 188 66 154 47 q 226 89 221 85 q 242 95 236 96 q 248 88 248 94 q 241 77 248 83 q 174 33 222 61 q 73 -16 125 4 q -8 -24 20 -35 q -16 52 -37 -12 q 47 155 3 100 q 127 220 91 210 q 153 215 143 223 q 167 193 164 207 q 154 170 164 178 q 133 160 144 161 q 117 165 122 159 q 116 169 117 168 q 114 173 115 172 q 109 171 113 174 q 98 161 105 168 l 98 161 l 98 161 z "},"d":{"ha":407,"x_min":-63,"x_max":789,"o":"m 286 178 q 201 99 253 146 q 95 11 150 53 q -2 -47 40 -31 q -56 -36 -43 -64 q -30 44 -63 -11 q 60 157 4 99 q 179 252 117 216 q 292 278 241 289 q 311 270 306 274 q 317 267 314 268 q 324 268 320 266 q 335 277 328 271 q 378 322 361 302 q 414 374 395 342 q 506 523 472 471 q 611 660 552 594 q 714 762 670 726 q 743 777 726 772 q 774 778 760 782 q 789 758 787 774 q 745 673 787 736 q 604 495 679 578 q 462 351 529 413 q 419 305 434 324 q 384 251 404 286 q 246 25 315 136 q 131 -160 177 -86 q 81 -238 84 -235 q 70 -247 77 -245 q 61 -243 64 -248 q 64 -228 58 -239 q 161 -60 103 -161 q 301 184 246 90 q 312 204 315 206 q 292 185 309 202 q 286 178 289 182 l 286 178 l 286 178 m 573 513 q 717 690 650 593 q 735 722 732 713 q 732 729 738 730 q 716 719 726 727 q 694 702 705 711 q 677 686 684 692 q 598 594 641 648 q 525 494 555 540 q 497 446 503 458 q 498 438 492 433 q 520 457 505 442 q 551 490 534 472 q 573 513 562 503 l 573 513 l 573 513 m 288 251 q 178 212 241 256 q 59 108 115 168 q -18 9 4 49 q -30 -18 -28 -9 q -16 -18 -32 -27 q 117 79 33 9 q 292 235 201 149 q 298 245 298 241 q 288 251 297 249 l 288 251 l 288 251 z "},"e":{"ha":267,"x_min":-26,"x_max":295,"o":"m 178 219 l 178 219 q 208 186 216 211 q 169 136 201 162 q 103 96 137 109 q 53 97 68 83 q 28 61 42 83 q 12 22 14 39 q 47 0 12 -3 q 132 22 83 3 q 221 61 180 41 q 273 89 262 81 q 288 94 281 94 q 294 86 295 93 q 276 67 293 79 q 207 27 256 53 q 104 -18 159 1 q 12 -31 50 -37 q -24 24 -26 -25 q 14 104 -21 58 q 94 185 48 150 q 178 219 140 220 m 164 182 l 164 182 q 143 171 158 180 q 112 150 128 161 q 83 128 95 138 q 68 113 71 118 q 81 113 66 109 q 129 139 100 121 q 172 174 157 158 q 178 183 179 181 q 164 182 177 185 z "},"f":{"ha":244,"x_min":-384,"x_max":380,"o":"m 10 -15 l 10 -15 q 5 -16 7 -16 q -20 -22 -12 -18 q -35 -38 -27 -26 q -118 -174 -80 -111 q -227 -349 -168 -254 q -254 -380 -237 -372 q -281 -381 -271 -389 q -281 -346 -291 -373 q -277 -335 -279 -338 q -271 -332 -274 -332 q -265 -332 -269 -332 q -260 -332 -262 -332 q -254 -329 -257 -332 q -166 -189 -206 -252 q -78 -49 -127 -125 q -74 -43 -76 -45 q -70 -32 -68 -34 q -89 -35 -72 -31 q -301 -92 -245 -67 q -351 -135 -357 -116 q -336 -157 -348 -146 q -310 -180 -325 -169 q -274 -212 -289 -195 q -264 -248 -259 -229 q -272 -263 -266 -256 q -288 -267 -279 -269 q -291 -262 -292 -264 q -288 -258 -290 -260 q -284 -256 -286 -258 q -282 -253 -283 -254 q -296 -219 -281 -235 q -331 -186 -311 -203 q -362 -159 -349 -173 q -378 -130 -376 -145 q -360 -88 -384 -107 q -270 -49 -336 -68 q -79 -7 -203 -30 q -57 -3 -64 -5 q -46 4 -50 -1 q -36 20 -41 9 q -4 72 -21 45 q 7 89 1 81 q 11 103 7 97 q 21 114 16 109 q 321 566 237 452 q 341 584 330 577 q 364 589 353 591 q 380 567 375 586 q 307 398 370 492 q 171 222 243 304 q 57 99 98 140 q 51 92 54 96 q 32 71 41 83 q 16 43 23 55 q 1 17 5 24 q 1 8 -3 9 q 14 9 4 7 q 20 9 17 9 q 117 24 65 17 q 244 43 175 32 q 257 41 253 44 q 260 33 261 37 q 250 26 258 28 q 10 -15 111 4 m 199 332 l 199 332 q 201 315 111 201 q 314 472 283 418 q 319 499 346 526 q 199 332 292 471 z "},"g":{"ha":460,"x_min":-125,"x_max":406,"o":"m 367 202 l 367 202 l 367 202 q 384 202 374 204 q 400 194 394 200 q 401 179 406 188 q 360 97 384 137 q 355 89 357 93 q 328 39 341 64 q 280 -43 305 -2 q 269 -63 272 -56 q 267 -73 267 -69 q 271 -80 268 -76 q 273 -81 272 -81 q 276 -93 277 -87 q 270 -103 275 -99 q 231 -136 248 -119 q 200 -176 215 -153 q 159 -244 184 -203 q 34 -444 102 -340 q -70 -578 -33 -548 q -110 -586 -96 -595 q -119 -547 -125 -577 q -75 -439 -106 -496 q -10 -342 -43 -383 q 136 -178 58 -255 q 182 -130 163 -152 q 220 -77 201 -108 l 320 83 q 342 121 332 102 q 349 138 350 134 q 342 139 348 142 q 328 130 336 136 q 313 117 320 123 q 307 112 309 114 q 251 66 289 98 q 144 -23 204 26 q 33 -106 85 -72 q -43 -139 -20 -140 q -78 -121 -72 -139 q -80 -79 -85 -103 q -7 74 -66 -8 q 132 214 52 157 q 287 266 211 271 q 316 251 307 263 q 320 226 325 239 q 293 210 315 213 q 283 210 286 208 q 279 216 281 212 q 274 222 277 219 q 265 227 271 225 q 245 225 258 228 q 123 163 186 214 q 12 46 60 113 q -47 -78 -35 -20 q -39 -103 -51 -102 q -10 -94 -28 -104 q 24 -71 8 -83 q 44 -54 39 -58 q 287 143 163 48 q 367 202 326 174 m -83 -551 l -83 -551 l -83 -551 q -49 -514 -71 -547 q -3 -442 -26 -482 q 36 -374 20 -402 q 50 -350 46 -355 q 54 -344 51 -348 q 66 -324 59 -336 q 78 -301 74 -312 q 79 -288 83 -291 q 53 -312 73 -286 q 5 -378 32 -338 q -45 -459 -22 -419 q -81 -526 -69 -500 q -83 -551 -92 -553 z "},"h":{"ha":509,"x_min":-58,"x_max":533,"o":"m 5 92 l 5 92 q 5 92 5 92 q 25 111 9 96 l 356 642 q 404 654 393 665 q 412 613 416 643 q 398 553 408 584 q 381 507 388 523 q 269 326 338 416 q 134 168 199 236 q 41 75 68 100 l 1 15 q -9 -7 -17 -11 q 21 18 -2 -3 q 139 123 75 68 q 257 215 202 178 q 342 245 313 251 q 359 155 382 235 q 346 58 343 91 q 363 21 348 26 q 516 75 406 10 q 528 76 523 79 q 533 66 533 73 q 524 54 532 60 q 422 -1 465 16 q 352 -9 380 -18 q 332 168 289 8 q 319 216 346 222 q 243 169 293 210 q 138 75 194 127 q 22 -26 73 15 q -46 -58 -30 -68 q -56 -35 -58 -50 q -45 -4 -54 -20 q -29 24 -37 12 q -24 31 -26 28 l -9 56 q -1 78 -3 68 q 5 92 0 87 m 196 315 l 196 315 q 210 311 107 182 q 329 482 281 393 q 360 549 357 536 q 349 543 363 561 q 311 491 334 526 q 262 418 288 456 q 219 351 237 380 q 196 315 201 323 z "},"i":{"ha":215,"x_min":-21,"x_max":241,"o":"m 166 312 l 166 312 q 183 301 184 311 q 170 281 182 291 q 145 268 158 271 q 125 277 132 265 q 126 283 124 280 q 133 289 129 286 q 141 293 138 291 q 145 294 144 294 q 146 296 146 295 q 153 308 147 303 q 166 312 158 313 m 15 -10 l 15 -10 q -16 7 -12 -10 q -12 50 -21 24 q 14 105 -3 76 q 46 158 30 134 q 72 195 62 182 q 77 201 75 199 q 84 225 73 212 q 111 245 96 239 q 134 243 127 252 q 136 229 138 235 q 128 216 133 222 q 125 212 127 214 q 70 131 100 176 q 24 55 39 85 q 39 26 13 28 q 107 34 65 23 q 183 57 149 45 q 225 74 218 70 q 237 75 233 78 q 241 67 241 73 q 231 55 240 61 q 116 10 187 31 q 15 -10 45 -10 z "},"j":{"ha":146,"x_min":-602,"x_max":169,"o":"m 113 247 l 113 247 q 101 250 105 247 q 97 260 96 253 q 114 278 109 271 q 122 289 120 285 q 125 298 124 294 q 128 306 126 302 q 136 317 130 311 q 150 316 143 319 q 159 306 157 313 q 161 290 162 297 q 145 260 159 274 q 113 247 130 246 m -142 -115 l -142 -115 q -107 -88 -119 -98 q -87 -65 -95 -77 q -67 -33 -79 -54 q -58 -18 -63 -26 q -10 63 -33 24 q 20 115 5 90 q 29 130 26 124 q 35 140 34 137 q 35 146 37 144 q 34 159 34 149 q 47 189 35 170 q 74 216 60 208 q 98 224 87 225 q 113 205 109 223 q 110 195 112 200 q 106 189 107 190 q 67 121 88 159 q 52 96 60 109 q 38 71 45 83 q 3 12 22 42 q -7 -19 -18 -20 q 37 4 3 -17 q 140 59 78 30 q 164 60 160 67 q 152 43 169 53 q -8 -60 77 5 q -21 -71 -16 -66 q -54 -96 -42 -86 q -75 -120 -65 -106 q -102 -161 -85 -134 q -246 -368 -171 -270 q -395 -529 -321 -465 q -538 -597 -470 -592 q -578 -588 -564 -599 q -587 -533 -602 -568 q -545 -466 -572 -499 q -499 -415 -517 -433 q -496 -412 -497 -414 q -142 -115 -356 -271 m -193 -232 l -193 -232 q -191 -229 -191 -231 q -157 -174 -159 -183 q -193 -193 -155 -165 q -469 -437 -361 -322 q -471 -439 -470 -438 q -498 -468 -479 -448 q -536 -513 -517 -489 q -561 -553 -555 -536 q -548 -570 -566 -570 q -375 -467 -467 -562 q -193 -232 -284 -372 z "},"k":{"ha":372,"x_min":-130,"x_max":509,"o":"m -98 -149 l -98 -149 q -114 -152 -106 -157 q -126 -138 -122 -148 q -124 -118 -130 -127 q 1 86 -121 -111 q 5 93 2 90 q 10 100 7 97 q 189 382 93 233 q 362 642 284 531 q 469 774 440 753 q 503 766 496 781 q 504 728 509 752 q 489 682 498 704 q 475 652 479 660 q 309 388 422 544 q 41 85 196 232 q 1 22 20 51 q -32 -31 -24 -15 q -19 -32 -41 -47 q 68 45 2 -16 q 341 249 254 218 q 359 246 355 252 q 366 229 363 239 q 366 226 366 228 q 328 179 369 204 q 243 132 288 153 q 203 112 219 121 q 187 94 192 102 q 176 69 182 85 q 157 6 165 42 q 159 -58 149 -31 q 214 -84 170 -85 q 227 -87 222 -83 q 229 -96 231 -92 q 213 -102 226 -101 q 126 -69 145 -104 q 123 22 107 -34 q 126 46 130 44 q 105 31 123 47 q 2 -61 58 -13 q -83 -136 -53 -110 q -98 -149 -96 -147 m 168 286 l 168 286 q 134 231 138 241 q 170 269 130 221 q 332 480 264 379 q 436 655 399 581 q 455 696 450 684 q 457 708 460 708 q 449 700 455 708 q 433 680 442 692 q 416 656 425 668 q 408 646 412 650 q 168 286 305 502 z "},"l":{"ha":203,"x_min":-277,"x_max":561,"o":"m -270 -398 l -270 -398 q -276 -384 -277 -395 q -261 -347 -275 -373 q -217 -272 -248 -321 q -137 -141 -187 -222 q 8 92 -80 -50 q 102 255 31 136 q 261 514 174 375 q 421 757 349 654 q 519 873 493 861 q 561 853 561 885 q 537 770 560 821 q 489 675 515 720 q 456 618 464 631 q 455 616 455 617 q 250 315 362 467 q 77 113 138 164 q 62 102 66 104 q 56 98 58 100 q 50 92 54 96 q 41 77 47 87 l -229 -362 q -230 -369 -227 -362 q -239 -385 -233 -376 q -253 -398 -245 -393 q -270 -398 -262 -402 m 118 201 l 118 201 q 109 184 109 186 q 121 197 109 182 q 271 403 189 283 q 424 635 354 523 q 520 814 507 774 q 486 791 534 854 q 352 591 418 697 q 223 376 286 484 q 118 201 170 286 z "},"m":{"ha":553,"x_min":-65,"x_max":581,"o":"m 260 31 l 260 31 q 280 44 266 30 q 315 79 295 58 q 382 145 347 114 q 441 177 417 176 q 466 152 463 174 q 467 103 469 130 q 465 72 465 86 q 471 52 465 58 q 559 86 483 41 q 575 90 569 92 q 579 81 581 87 q 567 68 578 75 q 490 29 517 37 q 448 34 463 20 q 429 120 422 58 q 426 134 430 134 q 410 123 422 134 q 408 121 409 122 q 361 79 387 104 q 300 25 330 48 q 253 7 271 1 q 229 45 229 17 q 239 107 228 74 q 262 168 250 141 q 271 190 267 181 q 254 194 275 207 q 199 153 233 181 q 132 95 165 125 q 78 46 98 64 q 64 33 66 36 q 54 24 60 30 q 21 -4 41 12 q -17 -33 1 -21 q -45 -41 -35 -44 q -50 2 -65 -30 q 44 157 -9 85 q 96 235 71 195 q 97 237 97 236 q 96 239 97 237 q 95 239 96 239 q 92 250 90 244 q 98 261 93 255 q 111 271 102 264 q 130 279 120 277 q 143 275 139 281 q 140 246 147 268 q 44 94 98 171 q 20 58 32 76 q 8 35 4 34 q 30 52 12 37 q 39 60 35 56 q 135 141 85 100 q 226 209 184 182 q 288 229 267 235 q 298 164 315 216 q 293 152 296 161 q 277 106 287 134 q 261 55 267 78 q 260 31 256 33 z "},"n":{"ha":269,"x_min":-48,"x_max":289,"o":"m -44 -4 l -44 -4 q -3 77 -31 29 q 50 168 24 124 q 75 208 64 191 q 71 219 71 213 q 75 230 71 225 q 100 251 92 249 l 102 252 q 113 252 108 254 q 125 239 123 248 q 125 237 125 238 q 125 235 125 236 q 122 223 125 229 q 66 131 97 182 q 12 37 35 79 q 64 82 28 52 q 137 137 100 111 q 189 163 173 162 q 216 144 213 163 q 216 102 220 125 q 216 72 214 85 q 230 60 217 60 q 273 80 242 60 q 285 83 281 85 q 288 74 289 80 q 280 63 286 67 q 199 48 219 24 q 189 131 180 73 q 146 107 175 130 q 85 54 118 84 q 29 7 56 28 q -16 -24 3 -15 q -39 -24 -29 -31 q -44 -4 -48 -18 z "},"o":{"ha":237,"x_min":-13,"x_max":258,"o":"m 118 -12 l 118 -12 q 29 -46 71 -58 q -12 26 -13 -34 q 73 183 -10 86 q 124 223 105 218 q 148 222 140 229 q 149 197 156 216 q 125 178 134 182 q 111 176 117 175 q 106 175 109 176 q 102 172 104 175 q 23 49 37 96 q 27 -15 9 2 q 75 -16 45 -31 q 105 15 88 -7 q 133 59 122 37 q 136 64 135 62 q 138 69 138 67 q 135 74 138 71 q 114 106 123 86 q 111 142 105 126 q 131 152 116 153 q 159 136 146 151 q 174 94 173 122 q 188 65 175 73 q 216 60 201 58 q 242 72 232 62 q 255 76 251 80 q 254 64 258 73 q 233 47 249 55 q 193 40 207 37 q 172 47 179 43 q 163 51 168 52 q 155 43 159 51 q 138 14 149 31 q 118 -12 127 -2 z "},"p":{"ha":474,"x_min":-340,"x_max":456,"o":"m -336 -562 l -336 -562 q -280 -445 -328 -543 q -159 -208 -233 -347 q 24 122 -66 -33 q 67 197 47 163 q 162 350 130 310 q 222 353 195 390 q 205 314 223 338 q 163 264 188 291 q 106 191 128 227 q -13 -19 56 104 q -127 -226 -82 -142 q -153 -272 -138 -245 q -178 -318 -167 -296 q -192 -347 -190 -339 q -182 -340 -195 -355 q -135 -281 -169 -326 q -116 -255 -125 -269 q 112 39 -16 -119 q 357 291 240 197 q 434 320 412 332 q 454 269 456 309 q 399 126 448 200 q 288 -7 351 53 q 174 -97 224 -68 q 114 -107 124 -126 q 116 -102 113 -104 q 123 -100 119 -100 q 212 -44 157 -92 q 320 67 267 3 q 404 189 374 131 q 420 278 434 248 q 379 262 416 290 q 160 41 279 183 q -76 -257 40 -100 q -278 -536 -191 -414 q -317 -592 -299 -566 q -330 -596 -324 -600 q -338 -583 -336 -593 q -336 -562 -340 -573 z "},"q":{"ha":470,"x_min":-77,"x_max":405,"o":"m 359 156 l 359 156 q 279 112 343 151 q 163 46 227 81 q 43 -15 100 10 q -45 -41 -14 -41 q -64 -1 -77 -41 q -9 72 -56 19 q 97 178 37 124 q 210 259 158 233 q 279 255 261 286 q 282 236 284 246 q 272 221 281 226 q 251 215 258 216 q 241 217 243 215 q 238 223 238 220 q 238 229 237 227 q 203 221 237 245 q 122 156 170 198 q 35 74 75 114 q -18 17 -5 34 q -35 -15 -41 -13 q -3 -4 -29 -17 q 102 54 35 16 q 254 139 178 100 q 366 182 330 179 q 394 173 382 182 q 402 146 405 163 q 349 38 395 115 q 241 -136 302 -39 q 92 -377 159 -263 q 23 -537 26 -490 q 41 -555 25 -555 q 76 -548 58 -555 q 100 -536 94 -541 q 114 -532 109 -530 q 119 -538 120 -533 q 109 -551 119 -544 q 60 -578 87 -566 q 11 -583 32 -589 q -14 -538 -11 -577 q 31 -425 -12 -508 q 137 -237 75 -342 q 260 -35 200 -132 q 365 139 333 83 q 372 156 372 152 q 359 156 371 160 z "},"r":{"ha":280,"x_min":0,"x_max":304,"o":"m 23 288 l 23 288 q 1 332 4 311 q 21 378 0 365 q 71 370 42 392 q 85 339 82 357 q 79 297 88 321 q 76 284 75 289 q 85 276 77 280 q 159 221 139 252 q 141 139 180 190 q 102 74 121 113 q 91 7 84 36 q 134 -2 99 -12 q 211 31 169 7 q 283 77 253 55 q 298 85 293 85 q 304 79 304 85 q 298 68 304 74 q 136 -28 208 -12 q 50 3 64 -44 q 118 159 36 50 q 125 211 141 191 q 75 249 109 231 q 73 250 74 250 q 61 254 66 255 q 48 242 56 253 q 36 226 40 231 q 17 211 25 212 q 5 216 9 210 q 3 230 1 222 q 9 237 5 237 q 29 255 14 238 q 33 272 36 264 q 23 288 30 280 m 56 314 l 56 314 q 52 344 58 331 q 39 357 46 357 q 32 336 31 357 q 36 325 33 332 q 44 310 39 317 q 52 303 48 303 q 54 305 54 303 q 54 309 54 307 q 56 314 55 311 z "},"s":{"ha":148,"x_min":-257,"x_max":100,"o":"m -43 -9 l -43 -9 q -31 10 -38 -5 q -14 48 -23 26 q 28 136 4 93 q 81 184 52 178 q 96 175 91 182 q 93 158 100 168 q 73 133 81 142 q 56 115 64 124 q 34 93 47 106 q 17 48 25 71 q 9 27 14 37 q 7 17 7 20 q 9 14 7 14 q 16 15 12 14 q 17 16 16 16 q 36 15 31 20 q 39 4 41 11 q 29 -7 37 -3 q 14 -12 22 -12 q -3 -19 5 -14 q -12 -29 -7 -22 q -20 -42 -17 -36 q -94 -135 -46 -92 q -206 -187 -141 -178 q -256 -174 -257 -192 q -220 -126 -254 -157 q -137 -64 -186 -96 q -43 -9 -88 -33 m -78 -73 l -78 -73 q -71 -64 -75 -69 q -64 -54 -66 -59 q -61 -47 -61 -50 q -65 -46 -61 -45 q -106 -71 -80 -53 q -159 -110 -132 -89 q -203 -145 -186 -130 q -216 -161 -220 -160 q -151 -136 -193 -162 q -78 -73 -109 -110 z "},"t":{"ha":209,"x_min":-326,"x_max":812,"o":"m -18 456 l -18 456 q -28 449 -20 450 q -47 453 -37 449 q -62 464 -58 457 q -60 477 -67 470 q -26 492 -52 485 q 225 529 102 513 q 261 534 249 532 q 281 544 274 537 q 296 564 288 550 q 321 606 308 585 q 326 616 323 611 q 469 825 431 791 q 519 808 527 879 q 424 577 505 715 q 423 575 424 576 q 412 552 411 556 q 427 550 412 548 q 432 550 430 550 q 447 551 439 551 q 794 560 616 562 q 809 555 806 560 q 808 546 812 550 q 792 542 804 541 q 421 524 601 545 q 410 523 415 524 q 394 520 400 523 q 381 507 388 517 q 204 262 296 376 q 50 91 111 147 q 44 86 46 87 q 41 84 42 85 q 38 82 39 83 q 35 78 37 81 q 29 69 33 75 q -274 -410 -121 -171 q -263 -419 -262 -410 q -273 -435 -264 -428 q -315 -449 -303 -458 q -313 -410 -326 -440 q -243 -300 -278 -355 q 241 473 3 83 q 247 483 244 479 q 255 499 255 494 q 238 500 254 503 q -18 460 112 482 q -18 456 -18 458 m 336 567 l 336 567 q 326 548 329 555 q 330 541 323 541 q 350 543 340 543 q 361 545 357 543 q 368 550 365 546 q 377 564 372 555 q 481 791 452 692 q 355 599 445 751 q 347 585 351 592 q 336 567 341 576 m 293 496 l 293 496 q 245 416 270 458 q 116 207 184 311 q 121 198 81 154 q 333 490 223 317 q 343 508 340 503 q 343 514 346 513 q 334 515 341 515 q 332 515 334 515 q 329 514 331 514 q 309 510 317 513 q 293 496 300 507 z "},"u":{"ha":502,"x_min":-15,"x_max":524,"o":"m 79 131 l 79 131 q 75 129 77 130 q 70 127 73 128 q 67 125 68 127 q 47 93 58 113 q 30 53 37 73 q 24 19 22 33 q 41 5 25 5 q 159 56 94 11 q 273 142 225 102 q 288 154 281 149 q 317 176 300 165 q 350 190 334 186 q 372 182 366 193 q 366 142 374 166 q 370 66 353 83 q 423 58 387 50 q 501 86 458 67 q 519 90 515 93 q 522 81 524 87 q 509 69 519 74 q 416 35 460 44 q 345 43 372 26 q 324 113 319 60 q 322 137 328 136 q 297 120 317 138 q 295 119 296 119 q 283 109 290 114 q 171 25 235 67 q 47 -22 107 -17 q 9 -14 25 -22 q -12 34 -15 4 q 7 95 -9 64 q 38 148 24 126 q 44 159 41 154 q 62 174 51 169 q 81 178 73 179 q 93 173 89 177 q 95 159 98 169 q 79 131 92 149 z "},"v":{"ha":311,"x_min":-18,"x_max":335,"o":"m 173 103 l 173 103 q 178 110 177 107 q 181 116 180 113 q 183 121 182 118 q 221 193 199 159 q 302 254 272 269 q 296 220 310 247 q 259 162 281 193 q 220 110 237 130 q 218 106 219 108 q 211 95 213 101 q 211 82 208 90 q 238 68 217 66 q 283 78 260 69 q 317 92 306 87 q 318 93 317 92 q 330 95 325 97 q 334 88 335 94 q 323 76 334 83 q 243 43 281 50 q 186 66 205 36 q 181 71 184 72 q 176 65 179 70 q 174 63 175 64 q 117 5 153 37 q 45 -42 81 -27 q -9 -30 9 -57 q -12 20 -18 -12 q 6 80 -7 47 q 28 127 14 99 q 60 179 43 155 q 90 212 77 204 q 111 204 104 212 q 108 170 118 195 q 100 157 104 162 q 89 147 96 153 q 68 127 81 140 q 52 104 60 119 q 39 79 43 90 q 16 -7 10 11 q 49 -10 22 -25 q 110 38 76 5 q 173 103 144 70 z "},"w":{"ha":574,"x_min":-7,"x_max":534,"o":"m 66 55 l 66 55 q 7 30 22 22 q 0 68 -7 37 q 27 136 7 99 q 69 199 54 186 q 100 201 84 212 q 101 174 109 187 q 78 148 93 160 q 54 122 62 134 q 39 92 47 110 q 34 81 37 87 q 30 66 28 69 q 45 75 31 63 q 96 117 68 92 q 148 160 123 141 q 189 182 172 179 q 239 149 227 185 q 256 78 252 112 q 257 66 256 71 q 271 3 262 31 q 292 -35 280 -26 q 329 -25 304 -43 q 396 51 353 -7 q 506 218 439 109 q 518 230 511 228 q 530 226 526 232 q 526 205 534 220 q 506 172 517 191 q 433 55 474 117 q 349 -44 391 -7 q 272 -64 307 -82 q 221 60 238 -46 q 210 124 216 96 q 194 153 203 152 q 154 127 181 149 q 100 82 126 105 q 66 55 78 64 z "},"x":{"ha":241,"x_min":-76,"x_max":283,"o":"m 20 194 l 20 194 q 22 203 22 199 q 21 208 22 206 q 19 211 20 210 q 18 213 18 212 q 17 218 17 215 q 26 238 20 229 q 50 250 32 248 q 65 243 62 251 q 64 226 68 236 q 22 96 26 148 q 24 56 18 56 q 46 77 30 56 q 106 138 60 93 q 200 223 152 184 q 268 262 248 263 q 281 253 280 260 q 278 239 283 247 q 268 223 274 231 q 262 215 264 218 q 254 205 258 208 q 243 206 249 203 q 234 205 239 208 q 222 198 228 202 q 214 191 217 193 q 206 183 210 187 q 54 41 138 125 q 45 28 45 33 q 61 21 45 24 q 243 90 123 7 q 258 94 252 96 q 263 87 264 93 q 254 75 263 82 q 190 33 227 55 q 114 1 153 12 q 39 7 74 -9 q 38 7 39 7 q 30 12 33 11 q 25 11 27 12 q 20 5 23 9 q 16 1 18 3 q -56 -115 -50 -70 q -57 -123 -57 -119 q -57 -135 -56 -130 q -64 -140 -58 -140 q -74 -130 -71 -138 q -75 -111 -76 -122 q -12 9 -68 -60 q -1 23 -5 18 q 5 30 3 28 q 6 35 7 33 q 5 39 6 37 q -2 59 2 45 q -1 125 -9 90 q 18 190 7 159 q 20 194 19 192 z "},"y":{"ha":524,"x_min":-42,"x_max":485,"o":"m 127 280 l 127 280 l 127 280 q 156 278 144 290 q 167 251 168 267 q 145 228 166 235 q 95 180 121 220 q 49 94 68 140 q 26 22 30 48 q 45 -28 23 -29 q 121 16 68 -26 q 240 114 175 58 q 361 215 304 170 q 447 266 418 259 q 484 242 485 262 q 468 199 482 223 q 464 191 466 195 q 401 90 437 139 q 374 48 387 69 q 340 -6 357 22 q 317 -45 329 -26 q 313 -52 315 -48 q 303 -67 307 -59 q 301 -83 298 -75 q 295 -100 303 -94 q 269 -123 277 -113 q 254 -148 261 -134 q 239 -174 249 -159 q 217 -212 232 -186 q 141 -338 186 -264 q 49 -466 95 -412 q -26 -515 3 -520 q -41 -497 -40 -511 q -37 -468 -42 -484 q -28 -441 -33 -452 q -26 -437 -27 -439 q 79 -264 11 -348 q 222 -118 148 -180 q 244 -95 237 -106 q 261 -71 252 -85 q 265 -64 263 -67 l 400 152 q 429 215 436 210 q 385 192 421 220 q 296 117 348 163 q 161 7 228 59 q 55 -54 94 -45 q 4 -40 23 -60 q -11 33 -16 -21 q 38 167 -2 100 q 127 280 79 234 m 60 -387 l 60 -387 l 60 -387 q 64 -382 61 -385 q 92 -340 73 -368 q 131 -281 111 -312 q 163 -229 151 -250 q 170 -208 175 -208 q 142 -240 164 -211 q 91 -309 119 -269 q 40 -385 63 -349 q 9 -435 17 -420 q -3 -473 -3 -467 q 5 -470 -3 -480 q 25 -443 13 -460 q 46 -410 37 -426 q 60 -387 56 -393 z "},"z":{"ha":191,"x_min":-28,"x_max":209,"o":"m 44 182 l 44 182 q 37 180 41 181 q 21 175 28 177 q 10 176 13 173 q 19 201 6 188 q 53 226 33 214 q 90 245 73 237 q 111 253 107 252 q 128 255 118 256 q 144 251 138 255 q 147 237 151 246 q 124 196 141 220 q 85 146 106 172 q 24 60 45 96 q 34 35 13 36 q 91 46 56 34 q 157 71 127 58 q 193 89 187 85 q 204 93 199 94 q 209 86 209 92 q 201 75 209 81 q 144 44 186 64 q 58 11 102 24 q -7 9 14 -3 q -11 56 -28 20 q 37 131 5 91 q 93 199 68 172 q 110 219 105 213 q 112 230 118 231 q 94 223 106 230 q 71 210 82 217 q 64 204 67 208 q 62 196 61 201 q 57 189 63 193 q 44 182 52 184 z "},"{":{"ha":416,"x_min":0,"x_max":568,"o":"m 111 227 l 111 227 q 106 223 109 224 q 100 218 102 220 q 99 215 98 216 q 102 210 100 213 q 111 196 105 206 q 126 86 138 136 q 90 -5 113 37 q 67 -54 77 -31 q 58 -99 58 -77 q 75 -129 58 -114 q 131 -153 92 -143 q 236 -162 170 -162 q 254 -167 250 -162 q 253 -177 257 -172 q 239 -182 248 -182 q 114 -174 159 -182 q 50 -149 68 -166 q 32 -106 32 -132 q 41 -58 32 -83 q 61 -7 50 -33 q 92 82 81 35 q 79 179 102 128 q 71 195 75 190 q 64 200 68 199 q 57 200 61 201 q 39 199 51 198 q 8 216 16 204 q 5 240 0 229 q 28 255 10 252 q 35 256 31 255 q 45 255 39 256 q 58 250 51 254 q 66 246 63 248 q 74 242 71 243 q 81 243 77 241 q 90 250 84 245 q 98 254 94 252 q 223 374 156 299 q 317 468 269 423 q 412 536 365 513 q 503 544 458 559 q 553 499 538 528 q 566 463 564 483 q 555 433 568 442 q 511 442 543 424 q 505 454 506 447 q 509 467 505 460 q 521 476 516 474 q 524 478 523 477 q 525 482 526 479 q 520 490 524 485 q 443 508 494 530 q 330 431 391 486 q 212 319 269 377 q 111 227 151 258 z "},"|":{"ha":358,"x_min":0,"x_max":301,"o":"m 26 -155 l 26 -155 q 15 -170 22 -168 q 4 -164 9 -171 q 3 -146 0 -157 q 73 61 31 -49 q 161 279 115 170 q 226 439 195 363 q 230 457 231 451 q 227 467 230 464 q 220 471 224 470 q 215 475 217 473 q 213 480 213 477 q 218 492 214 484 q 218 492 218 492 q 233 509 221 496 q 258 534 244 522 q 284 549 273 547 q 299 535 296 552 q 271 442 301 516 q 194 265 240 368 q 97 41 144 154 q 26 -155 50 -73 z "},"}":{"ha":392,"x_min":-155,"x_max":392,"o":"m 252 191 l 252 191 q 274 209 267 203 q 282 216 280 214 q 285 219 285 218 q 283 222 285 220 q 279 233 281 225 q 277 256 277 240 q 289 316 278 283 q 315 381 300 348 q 344 458 334 422 q 343 515 355 494 q 286 534 332 536 q 251 524 262 532 q 235 507 239 515 q 227 499 231 502 q 216 498 222 496 q 211 500 214 499 q 195 507 202 503 q 186 519 187 511 q 195 541 185 527 q 232 554 208 547 q 284 564 256 562 q 373 537 355 568 q 378 459 391 507 q 345 360 366 411 q 314 269 321 307 q 314 243 311 250 q 322 236 316 237 q 336 237 328 235 q 357 239 345 239 q 387 216 382 234 q 368 184 392 195 q 347 182 355 180 q 335 186 340 184 q 323 191 330 190 q 306 185 317 191 q 275 164 294 180 q 190 45 241 131 q 114 -72 155 -14 q 29 -164 73 -130 q -61 -190 -15 -199 q -152 -103 -106 -180 q -153 -90 -155 -96 q -144 -84 -151 -84 q -128 -96 -138 -83 q -55 -160 -93 -156 q 21 -129 -17 -163 q 96 -41 60 -94 q 165 68 133 13 q 252 191 217 157 z "},"~":{"ha":441,"x_min":0,"x_max":382,"o":"m 362 123 l 362 123 q 304 128 338 135 q 219 105 270 121 q 196 98 208 101 q 123 84 157 84 q 55 109 90 85 q 38 117 44 117 q 24 110 31 117 q 17 107 20 106 q 12 114 14 109 q 9 117 10 115 q 8 118 9 117 q 4 129 7 121 q 0 147 1 138 q 7 162 0 157 q 33 165 14 168 q 77 138 60 150 q 121 115 98 120 q 191 125 143 111 q 205 130 198 127 q 300 155 264 149 q 368 145 336 161 q 380 133 379 140 q 377 123 382 126 q 362 123 372 119 z "},"":{"ha":423,"x_min":0,"x_max":372,"o":"m 145 150 l 145 150 q 146 151 146 151 q 159 162 156 158 q 162 170 163 166 q 156 182 161 174 q 149 194 153 186 q 123 235 135 220 q 103 250 111 251 q 92 269 95 256 q 91 293 88 282 q 102 304 93 304 q 129 282 111 304 q 172 209 146 261 q 178 194 176 199 q 185 183 182 184 q 199 191 189 183 q 205 197 201 194 q 221 209 213 203 q 237 222 229 216 q 321 272 292 264 q 361 269 351 279 q 365 245 372 258 q 340 231 359 232 q 322 236 328 237 q 306 228 316 235 q 291 219 300 224 q 224 176 258 199 q 210 168 216 171 q 200 161 203 164 q 198 153 197 158 q 205 136 200 147 q 219 108 212 122 q 250 39 236 72 q 251 24 255 29 q 241 19 248 18 q 229 28 234 20 q 219 50 227 34 q 186 121 206 79 q 182 130 183 126 q 175 141 178 140 q 163 135 172 142 q 157 130 161 133 q 20 24 85 77 q 7 21 12 19 q 1 29 1 23 q 7 43 0 35 q 116 127 58 83 q 145 150 130 138 z "},"":{"ha":408,"x_min":0,"x_max":327,"o":"m 173 149 l 173 149 q 239 149 206 148 q 309 149 275 150 q 323 143 319 149 q 323 132 327 138 q 310 125 320 126 q 279 125 302 125 q 192 124 243 125 q 100 118 140 123 q 56 103 60 113 q 32 101 47 98 q 8 112 17 104 q 9 128 0 119 q 57 143 18 137 q 173 149 95 149 m 207 208 l 207 208 q 190 211 196 205 q 184 228 184 218 q 186 245 183 237 q 209 258 195 260 q 232 243 224 256 q 233 230 235 237 q 225 219 231 223 q 215 212 220 216 q 207 208 210 209 m 130 1 l 130 1 q 113 4 119 -2 q 106 21 107 11 q 109 39 106 31 q 132 51 117 53 q 155 37 146 50 q 156 23 158 30 q 148 12 154 16 q 138 5 142 9 q 130 1 132 2 z "},"":{"ha":380,"x_min":-202,"x_max":1044,"o":"m 1021 586 l 1021 586 q 841 580 958 591 q 629 556 724 569 q 625 555 627 556 q 583 549 596 552 q 561 537 569 545 q 542 511 553 529 q 528 490 536 502 q 393 307 469 404 q 219 66 294 181 q 189 18 211 54 q 71 -168 143 -52 q -67 -394 -2 -283 q -155 -563 -132 -505 q -163 -582 -159 -573 q -177 -615 -171 -606 q -192 -612 -183 -625 q -154 -496 -202 -593 q -25 -263 -105 -399 q 140 12 55 -127 q 144 17 142 14 q 161 50 163 48 q 129 27 159 52 q 119 19 124 23 q 43 -38 80 -14 q -27 -62 7 -62 q -61 -46 -51 -62 q -58 -7 -71 -32 q -13 66 -24 52 q 82 222 26 129 q 213 439 144 325 q 220 451 217 446 q 233 477 235 472 q 208 474 232 481 q 196 471 201 473 q -4 414 76 440 q -20 408 -13 411 q -37 401 -30 405 q -46 393 -44 398 q -46 389 -46 392 q -46 383 -45 387 q -51 375 -47 379 q -67 369 -56 372 q -83 371 -73 368 q -102 381 -94 374 q -107 399 -110 389 q -84 422 -105 409 q -17 452 -64 436 q 222 516 77 482 q 255 526 244 521 q 274 540 267 530 q 292 568 281 549 q 303 585 297 575 q 411 755 365 685 q 475 842 457 825 q 525 843 513 867 q 517 770 537 819 q 513 762 515 767 q 476 685 501 733 q 408 580 451 636 q 401 570 404 574 q 391 553 387 555 q 423 555 395 551 q 446 559 433 557 q 457 561 452 560 q 483 566 474 564 q 496 573 491 568 q 507 590 500 578 q 521 610 513 598 q 569 677 551 654 q 611 679 600 697 q 607 627 623 660 q 592 597 598 607 q 587 581 584 583 q 614 582 590 578 q 625 583 618 583 q 630 583 627 583 q 844 605 726 595 q 1025 609 962 615 q 1040 601 1036 608 q 1040 590 1044 595 q 1021 586 1036 585 m 334 571 l 334 571 q 330 563 332 567 q 318 544 321 551 q 326 538 315 536 q 338 542 334 540 q 345 548 342 543 q 355 562 349 552 q 454 728 423 672 q 469 763 481 775 q 421 699 458 751 q 334 571 385 646 m 246 436 l 246 436 q 118 235 170 319 q 74 154 66 151 q 158 260 96 172 q 291 461 220 349 q 296 469 294 465 q 306 485 302 477 q 310 495 310 492 q 302 497 310 499 q 276 479 287 492 q 255 450 264 467 q 246 436 251 443 m 437 486 l 437 486 q 456 511 448 501 q 466 528 466 524 q 447 528 465 532 q 429 525 435 526 q 412 522 422 524 q 401 519 408 521 q 375 513 384 516 q 360 503 366 510 q 345 479 355 495 q 340 472 342 476 q 175 234 258 347 q 35 68 92 121 q -15 0 18 54 q -16 -26 -33 -29 q 36 0 0 -23 q 114 56 73 24 q 190 119 156 89 q 234 166 223 150 q 346 345 304 280 q 414 450 388 410 q 437 486 427 468 z "},"":{"ha":426,"x_min":-138,"x_max":677,"o":"m 612 699 l 612 699 q 659 650 677 717 q 574 474 641 583 q 426 258 507 366 q 283 85 345 150 q 252 56 267 69 q 217 23 235 42 q 179 -29 199 4 q -117 -494 -110 -489 q -131 -495 -124 -498 q -137 -484 -138 -492 q -125 -459 -136 -479 q 103 -78 -115 -440 q 115 -57 109 -66 q 126 -33 126 -37 q 103 -47 125 -29 q 51 -80 85 -62 q -19 -103 16 -97 q -75 -87 -54 -109 q -73 -46 -85 -72 q -47 1 -61 -20 q -43 8 -45 5 q 61 187 -17 56 q 234 470 138 317 q 410 736 330 623 q 517 863 489 850 q 563 841 563 876 q 537 750 562 806 q 485 646 512 694 q 448 583 457 597 q 447 582 447 583 q 224 251 340 409 q 28 41 109 94 q -2 -2 9 15 q -24 -37 -14 -19 q -35 -54 -30 -46 q -14 -65 -39 -73 q 54 -33 12 -58 q 139 24 96 -7 q 168 48 158 39 q 185 67 178 57 q 203 96 193 77 q 208 102 205 99 q 359 352 275 218 q 514 586 443 486 q 612 699 585 686 m 78 127 l 78 127 q 68 109 68 111 q 81 123 68 106 q 246 348 155 217 q 412 603 336 479 q 519 798 505 754 q 481 773 533 842 q 336 557 407 672 q 197 326 265 442 q 78 127 136 223 m 562 531 l 562 531 q 603 629 608 617 q 564 592 597 640 q 451 431 491 493 q 372 302 412 370 q 286 157 339 245 q 274 136 279 146 q 271 125 270 127 q 282 135 273 124 q 562 531 446 317 z "}}}
